<svg width="466" height="464" viewBox="0 0 466 464" fill="none" xmlns="http://www.w3.org/2000/svg">
<path d="M388.923 405.83C346.808 443.767 292.291 465.023 235.612 465.608C178.932 466.193 123.989 446.066 81.0991 409.007C38.2097 371.947 10.3249 320.505 2.68125 264.34C-4.96236 208.175 8.16108 151.152 39.587 103.978C71.013 56.8048 118.58 22.7268 173.354 8.14372C228.129 -6.43938 286.343 -0.524324 337.065 24.7781C387.787 50.0805 427.526 93.0296 448.822 145.56C470.117 198.09 471.502 256.588 452.718 310.067L362.207 278.276C373.245 246.848 372.431 212.471 359.917 181.601C347.402 150.731 324.049 125.491 294.242 110.622C264.434 95.753 230.224 92.2769 198.035 100.847C165.846 109.417 137.893 129.443 119.426 157.165C100.958 184.887 93.2456 218.397 97.7375 251.403C102.229 284.409 118.616 314.64 143.821 336.418C169.025 358.197 201.313 370.025 234.622 369.681C267.93 369.337 299.967 356.845 324.717 334.551L388.923 405.83Z" fill="url(#paint0_angular_2120_18330)"/>
<defs>
<radialGradient id="paint0_angular_2120_18330" cx="0" cy="0" r="1" gradientUnits="userSpaceOnUse" gradientTransform="translate(233.211 232.966) rotate(140.07) scale(232.654 232.654)">
<stop stop-color="#115EED"/>
<stop offset="1" stop-color="#115EED" stop-opacity="0"/>
</radialGradient>
</defs>
</svg>
