<svg width="84" height="84" viewBox="0 0 84 84" fill="none" xmlns="http://www.w3.org/2000/svg">
<path fill-rule="evenodd" clip-rule="evenodd" d="M40.25 51.0986L50.0815 41.9985L40.25 32.902V51.0986ZM55.93 46.1255L43.183 57.9204C42.0665 58.9564 40.614 59.4989 39.1335 59.4989C38.318 59.4989 37.4885 59.3309 36.708 58.9914C34.573 58.0604 33.25 56.0689 33.25 53.7939V30.204C33.25 27.9325 34.573 25.9375 36.708 25.01C38.899 24.0475 41.4435 24.4675 43.1865 26.081L55.93 37.876C57.0885 38.9435 57.75 40.4485 57.75 41.999C57.75 43.553 57.0885 45.0545 55.93 46.1255M42 6.99894C22.701 6.99894 7 22.7034 7 41.9989C7 61.2979 22.701 76.9989 42 76.9989C61.299 76.9989 77 61.2979 77 41.9989C77 22.7034 61.299 6.99894 42 6.99894" fill="#115EED"/>
<mask id="mask0_7_125" style="mask-type:alpha" maskUnits="userSpaceOnUse" x="7" y="6" width="70" height="71">
<path fill-rule="evenodd" clip-rule="evenodd" d="M40.25 51.0986L50.0815 41.9985L40.25 32.902V51.0986ZM55.93 46.1255L43.183 57.9204C42.0665 58.9564 40.614 59.4989 39.1335 59.4989C38.318 59.4989 37.4885 59.3309 36.708 58.9914C34.573 58.0604 33.25 56.0689 33.25 53.7939V30.204C33.25 27.9325 34.573 25.9375 36.708 25.01C38.899 24.0475 41.4435 24.4675 43.1865 26.081L55.93 37.876C57.0885 38.9435 57.75 40.4485 57.75 41.999C57.75 43.553 57.0885 45.0545 55.93 46.1255M42 6.99894C22.701 6.99894 7 22.7034 7 41.9989C7 61.2979 22.701 76.9989 42 76.9989C61.299 76.9989 77 61.2979 77 41.9989C77 22.7034 61.299 6.99894 42 6.99894" fill="white"/>
</mask>
<g mask="url(#mask0_7_125)">
<rect width="84" height="84" fill="#115EED"/>
</g>
</svg>
