<svg width="24" height="24" viewBox="0 0 24 24" fill="none" xmlns="http://www.w3.org/2000/svg">
<path fill-rule="evenodd" clip-rule="evenodd" d="M16 11H10.3L11.5 9.7C11.9 9.3 11.9 8.7 11.5 8.3C11.1 7.9 10.5 7.9 10.1 8.3L7.2 11.3L7.1 11.4C7.1 11.5 7 11.5 7 11.6C7 11.7 7 11.8 6.9 11.9V12C6.9 12.1 6.9 12.3 7 12.4C7 12.5 7.1 12.6 7.2 12.7L10.2 15.7C10.4 15.9 10.7 16 10.9 16C11.1 16 11.4 15.9 11.6 15.7C12 15.3 12 14.7 11.6 14.3L10.4 13H16C16.6 13 17 12.6 17 12C17 11.4 16.6 11 16 11ZM12 20C7.6 20 4 16.4 4 12C4 7.6 7.6 4 12 4C16.4 4 20 7.6 20 12C20 16.4 16.4 20 12 20ZM12 2C6.5 2 2 6.5 2 12C2 17.5 6.5 22 12 22C17.5 22 22 17.5 22 12C22 6.5 17.5 2 12 2Z" fill="#535861"/>
<mask id="mask0_816_5430" style="mask-type:alpha" maskUnits="userSpaceOnUse" x="2" y="2" width="20" height="20">
<path fill-rule="evenodd" clip-rule="evenodd" d="M16 11H10.3L11.5 9.7C11.9 9.3 11.9 8.7 11.5 8.3C11.1 7.9 10.5 7.9 10.1 8.3L7.2 11.3L7.1 11.4C7.1 11.5 7 11.5 7 11.6C7 11.7 7 11.8 6.9 11.9V12C6.9 12.1 6.9 12.3 7 12.4C7 12.5 7.1 12.6 7.2 12.7L10.2 15.7C10.4 15.9 10.7 16 10.9 16C11.1 16 11.4 15.9 11.6 15.7C12 15.3 12 14.7 11.6 14.3L10.4 13H16C16.6 13 17 12.6 17 12C17 11.4 16.6 11 16 11ZM12 20C7.6 20 4 16.4 4 12C4 7.6 7.6 4 12 4C16.4 4 20 7.6 20 12C20 16.4 16.4 20 12 20ZM12 2C6.5 2 2 6.5 2 12C2 17.5 6.5 22 12 22C17.5 22 22 17.5 22 12C22 6.5 17.5 2 12 2Z" fill="white"/>
</mask>
<g mask="url(#mask0_816_5430)">
<path d="M24 0H0V24H24V0Z" fill="#535861"/>
</g>
</svg>
