<svg width="48" height="48" viewBox="0 0 48 48" fill="none" xmlns="http://www.w3.org/2000/svg">
<rect width="48" height="48" rx="2" fill="#FAE9C9"/>
<path fill-rule="evenodd" clip-rule="evenodd" d="M32 30C32 30.551 31.551 31 31 31H29V21H31C31.551 21 32 21.449 32 22V30ZM16 30V22C16 21.449 16.449 21 17 21H19V31H17C16.449 31 16 30.551 16 30ZM22 17.5C22 17.224 22.224 17 22.5 17H25.5C25.776 17 26 17.224 26 17.5V19H22V17.5ZM21 31H27V21H21V31ZM31 19H28V17.5C28 16.122 26.878 15 25.5 15H22.5C21.122 15 20 16.122 20 17.5V19H17C15.346 19 14 20.346 14 22V30C14 31.654 15.346 33 17 33H31C32.654 33 34 31.654 34 30V22C34 20.346 32.654 19 31 19Z" fill="#FFA700"/>
<mask id="mask0_456_2546" style="mask-type:alpha" maskUnits="userSpaceOnUse" x="14" y="15" width="20" height="18">
<path fill-rule="evenodd" clip-rule="evenodd" d="M32 30C32 30.551 31.551 31 31 31H29V21H31C31.551 21 32 21.449 32 22V30ZM16 30V22C16 21.449 16.449 21 17 21H19V31H17C16.449 31 16 30.551 16 30ZM22 17.5C22 17.224 22.224 17 22.5 17H25.5C25.776 17 26 17.224 26 17.5V19H22V17.5ZM21 31H27V21H21V31ZM31 19H28V17.5C28 16.122 26.878 15 25.5 15H22.5C21.122 15 20 16.122 20 17.5V19H17C15.346 19 14 20.346 14 22V30C14 31.654 15.346 33 17 33H31C32.654 33 34 31.654 34 30V22C34 20.346 32.654 19 31 19Z" fill="white"/>
</mask>
<g mask="url(#mask0_456_2546)">
<rect x="12" y="12" width="24" height="24" fill="#FFA700"/>
</g>
</svg>
