<svg width="32" height="32" viewBox="0 0 32 32" fill="none" xmlns="http://www.w3.org/2000/svg">
<rect width="32" height="32" rx="4" fill="#E6EBF4"/>
<path fill-rule="evenodd" clip-rule="evenodd" d="M13.8365 14.058C14.3407 14.058 14.6357 14.3288 14.6357 14.7688C14.6357 15.2405 14.3165 15.5072 13.5932 15.5072H12.8824V14.058H13.8365ZM18.3016 15.3239C17.7799 15.3239 17.4366 15.7222 17.4366 16.2372V16.2447H19.1541V16.2372C19.1541 15.718 18.8191 15.3239 18.3016 15.3239ZM13.9044 16.2532H12.8819V17.8648H13.681C14.5319 17.8648 14.8794 17.594 14.8794 17.0782C14.8794 16.5665 14.5352 16.2532 13.9044 16.2532ZM20.1864 16.8782H17.438V16.9882C17.438 17.5982 17.8055 17.9848 18.3472 17.9848C18.7714 17.9848 19.0705 17.7882 19.1597 17.4615H20.1464C20.0455 18.1065 19.4872 18.7473 18.3389 18.7473C17.163 18.7473 16.3947 18.0573 16.3947 16.8257V16.4573C16.3947 15.2782 17.1664 14.5807 18.2947 14.5807C19.463 14.5807 20.1864 15.3273 20.1864 16.4832V16.8782ZM17.041 14.0857H19.541V13.669H17.041V14.0857ZM14.0804 18.669H11.8112V13.2523H14.0845C15.0595 13.2523 15.6987 13.7573 15.6987 14.5865C15.6987 15.2448 15.3029 15.6423 14.7637 15.7732V15.8198C15.4187 15.884 15.9779 16.329 15.9779 17.1415C15.9779 18.1107 15.187 18.669 14.0804 18.669ZM15.9993 7.6665C11.3968 7.6665 7.66602 11.3982 7.66602 15.9998C7.66602 20.6023 11.3968 24.3332 15.9993 24.3332C20.6018 24.3332 24.3327 20.6023 24.3327 15.9998C24.3327 11.3982 20.6018 7.6665 15.9993 7.6665Z" fill="#535861"/>
<mask id="mask0_1977_9832" style="mask-type:alpha" maskUnits="userSpaceOnUse" x="7" y="7" width="18" height="18">
<path fill-rule="evenodd" clip-rule="evenodd" d="M13.8365 14.058C14.3407 14.058 14.6357 14.3288 14.6357 14.7688C14.6357 15.2405 14.3165 15.5072 13.5932 15.5072H12.8824V14.058H13.8365ZM18.3016 15.3239C17.7799 15.3239 17.4366 15.7222 17.4366 16.2372V16.2447H19.1541V16.2372C19.1541 15.718 18.8191 15.3239 18.3016 15.3239ZM13.9044 16.2532H12.8819V17.8648H13.681C14.5319 17.8648 14.8794 17.594 14.8794 17.0782C14.8794 16.5665 14.5352 16.2532 13.9044 16.2532ZM20.1864 16.8782H17.438V16.9882C17.438 17.5982 17.8055 17.9848 18.3472 17.9848C18.7714 17.9848 19.0705 17.7882 19.1597 17.4615H20.1464C20.0455 18.1065 19.4872 18.7473 18.3389 18.7473C17.163 18.7473 16.3947 18.0573 16.3947 16.8257V16.4573C16.3947 15.2782 17.1664 14.5807 18.2947 14.5807C19.463 14.5807 20.1864 15.3273 20.1864 16.4832V16.8782ZM17.041 14.0857H19.541V13.669H17.041V14.0857ZM14.0804 18.669H11.8112V13.2523H14.0845C15.0595 13.2523 15.6987 13.7573 15.6987 14.5865C15.6987 15.2448 15.3029 15.6423 14.7637 15.7732V15.8198C15.4187 15.884 15.9779 16.329 15.9779 17.1415C15.9779 18.1107 15.187 18.669 14.0804 18.669ZM15.9993 7.6665C11.3968 7.6665 7.66602 11.3982 7.66602 15.9998C7.66602 20.6023 11.3968 24.3332 15.9993 24.3332C20.6018 24.3332 24.3327 20.6023 24.3327 15.9998C24.3327 11.3982 20.6018 7.6665 15.9993 7.6665Z" fill="white"/>
</mask>
<g mask="url(#mask0_1977_9832)">
<rect x="6" y="6" width="20" height="20" fill="#535861"/>
</g>
</svg>
