<svg width="20" height="20" viewBox="0 0 20 20" fill="none" xmlns="http://www.w3.org/2000/svg">
<path fill-rule="evenodd" clip-rule="evenodd" d="M9.85005 12.9215C9.99088 12.9215 10.1326 12.9574 10.2601 13.029L14.1659 15.2382V4.44488C14.1659 4.27738 14.0651 4.16655 13.9992 4.16655H5.99922C5.93255 4.16655 5.83255 4.27738 5.83255 4.44488V15.1949L9.42089 13.0407C9.55338 12.9615 9.70172 12.9215 9.85005 12.9215ZM4.99935 17.4999C4.85768 17.4999 4.71602 17.464 4.58852 17.3915C4.32768 17.244 4.16602 16.9665 4.16602 16.6665V4.44488C4.16602 3.37238 4.98852 2.49988 5.99935 2.49988H13.9994C15.0102 2.49988 15.8327 3.37238 15.8327 4.44488V16.6665C15.8327 16.9632 15.6752 17.2374 15.4193 17.3865C15.1627 17.5365 14.8477 17.539 14.5894 17.3924L9.86268 14.719L5.42768 17.3815C5.29602 17.4599 5.14768 17.4999 4.99935 17.4999Z" fill="#115EED"/>
<mask id="mask0_650_5128" style="mask-type:alpha" maskUnits="userSpaceOnUse" x="4" y="2" width="12" height="16">
<path fill-rule="evenodd" clip-rule="evenodd" d="M9.85005 12.9215C9.99088 12.9215 10.1326 12.9574 10.2601 13.029L14.1659 15.2382V4.44488C14.1659 4.27738 14.0651 4.16655 13.9992 4.16655H5.99922C5.93255 4.16655 5.83255 4.27738 5.83255 4.44488V15.1949L9.42089 13.0407C9.55338 12.9615 9.70172 12.9215 9.85005 12.9215ZM4.99935 17.4999C4.85768 17.4999 4.71602 17.464 4.58852 17.3915C4.32768 17.244 4.16602 16.9665 4.16602 16.6665V4.44488C4.16602 3.37238 4.98852 2.49988 5.99935 2.49988H13.9994C15.0102 2.49988 15.8327 3.37238 15.8327 4.44488V16.6665C15.8327 16.9632 15.6752 17.2374 15.4193 17.3865C15.1627 17.5365 14.8477 17.539 14.5894 17.3924L9.86268 14.719L5.42768 17.3815C5.29602 17.4599 5.14768 17.4999 4.99935 17.4999Z" fill="white"/>
</mask>
<g mask="url(#mask0_650_5128)">
<rect width="20" height="20" fill="#115EED"/>
</g>
</svg>
