<svg width="24" height="24" viewBox="0 0 24 24" fill="none" xmlns="http://www.w3.org/2000/svg">
<path fill-rule="evenodd" clip-rule="evenodd" d="M20 18C20 18.6 19.6 19 19 19H17V9H19C19.6 9 20 9.4 20 10V18ZM4 18V10C4 9.4 4.4 9 5 9H7V19H5C4.4 19 4 18.6 4 18ZM10 5.5C10 5.2 10.2 5 10.5 5H13.5C13.8 5 14 5.2 14 5.5V7H10V5.5ZM9 19H15V9H9V19ZM19 7H16V5.5C16 4.1 14.9 3 13.5 3H10.5C9.1 3 8 4.1 8 5.5V7H5C3.3 7 2 8.3 2 10V18C2 19.7 3.3 21 5 21H19C20.7 21 22 19.7 22 18V10C22 8.3 20.7 7 19 7Z" fill="#FFA700"/>
<mask id="mask0_816_5362" style="mask-type:alpha" maskUnits="userSpaceOnUse" x="2" y="3" width="20" height="18">
<path fill-rule="evenodd" clip-rule="evenodd" d="M20 18C20 18.6 19.6 19 19 19H17V9H19C19.6 9 20 9.4 20 10V18ZM4 18V10C4 9.4 4.4 9 5 9H7V19H5C4.4 19 4 18.6 4 18ZM10 5.5C10 5.2 10.2 5 10.5 5H13.5C13.8 5 14 5.2 14 5.5V7H10V5.5ZM9 19H15V9H9V19ZM19 7H16V5.5C16 4.1 14.9 3 13.5 3H10.5C9.1 3 8 4.1 8 5.5V7H5C3.3 7 2 8.3 2 10V18C2 19.7 3.3 21 5 21H19C20.7 21 22 19.7 22 18V10C22 8.3 20.7 7 19 7Z" fill="white"/>
</mask>
<g mask="url(#mask0_816_5362)">
<path d="M24 0H0V24H24V0Z" fill="#FFA700"/>
</g>
</svg>
