<svg width="24" height="24" viewBox="0 0 24 24" fill="none" xmlns="http://www.w3.org/2000/svg">
<path fill-rule="evenodd" clip-rule="evenodd" d="M13 5C13 5.6 12.6 6 12 6C11.4 6 11 5.6 11 5V3C11 2.4 11.4 2 12 2C12.6 2 13 2.4 13 3V5ZM13 15.5C13 15.1 13.2 14.8 13.5 14.6C14.4 14.1 15 13.1 15 12C15 10.3 13.7 9 12 9C10.3 9 9 10.3 9 12C9 13.1 9.6 14.1 10.5 14.6C10.8 14.8 11 15.1 11 15.5V20H13V15.5ZM7 12C7 9.2 9.2 7 12 7C14.8 7 17 9.2 17 12C17 13.6 16.2 15.1 15 16V20C15 21.1 14.1 22 13 22H11C9.9 22 9 21.1 9 20V16C7.8 15.1 7 13.6 7 12ZM21 11H19C18.4 11 18 11.4 18 12C18 12.6 18.4 13 19 13H21C21.6 13 22 12.6 22 12C22 11.4 21.6 11 21 11ZM3 11H5C5.6 11 6 11.4 6 12C6 12.6 5.6 13 5 13H3C2.4 13 2 12.6 2 12C2 11.4 2.4 11 3 11ZM7.7 6.4L6.2 5C5.8 4.6 5.2 4.6 4.8 5C4.4 5.4 4.4 6 4.8 6.4L6.2 7.8C6.5 8 6.7 8.1 7 8.1C7.3 8.1 7.5 8 7.7 7.8C8.1 7.4 8.1 6.8 7.7 6.4ZM17.8 5C18.2 4.6 18.8 4.6 19.2 5C19.6 5.4 19.6 6 19.2 6.4L17.8 7.8C17.5 8 17.3 8.1 17 8.1C16.7 8.1 16.5 8 16.3 7.8C15.9 7.4 15.9 6.8 16.3 6.4L17.8 5Z" fill="#231F20"/>
<mask id="mask0_816_5368" style="mask-type:alpha" maskUnits="userSpaceOnUse" x="2" y="2" width="20" height="20">
<path fill-rule="evenodd" clip-rule="evenodd" d="M13 5C13 5.6 12.6 6 12 6C11.4 6 11 5.6 11 5V3C11 2.4 11.4 2 12 2C12.6 2 13 2.4 13 3V5ZM13 15.5C13 15.1 13.2 14.8 13.5 14.6C14.4 14.1 15 13.1 15 12C15 10.3 13.7 9 12 9C10.3 9 9 10.3 9 12C9 13.1 9.6 14.1 10.5 14.6C10.8 14.8 11 15.1 11 15.5V20H13V15.5ZM7 12C7 9.2 9.2 7 12 7C14.8 7 17 9.2 17 12C17 13.6 16.2 15.1 15 16V20C15 21.1 14.1 22 13 22H11C9.9 22 9 21.1 9 20V16C7.8 15.1 7 13.6 7 12ZM21 11H19C18.4 11 18 11.4 18 12C18 12.6 18.4 13 19 13H21C21.6 13 22 12.6 22 12C22 11.4 21.6 11 21 11ZM3 11H5C5.6 11 6 11.4 6 12C6 12.6 5.6 13 5 13H3C2.4 13 2 12.6 2 12C2 11.4 2.4 11 3 11ZM7.7 6.4L6.2 5C5.8 4.6 5.2 4.6 4.8 5C4.4 5.4 4.4 6 4.8 6.4L6.2 7.8C6.5 8 6.7 8.1 7 8.1C7.3 8.1 7.5 8 7.7 7.8C8.1 7.4 8.1 6.8 7.7 6.4ZM17.8 5C18.2 4.6 18.8 4.6 19.2 5C19.6 5.4 19.6 6 19.2 6.4L17.8 7.8C17.5 8 17.3 8.1 17 8.1C16.7 8.1 16.5 8 16.3 7.8C15.9 7.4 15.9 6.8 16.3 6.4L17.8 5Z" fill="white"/>
</mask>
<g mask="url(#mask0_816_5368)">
<path d="M24 0H0V24H24V0Z" fill="#4885FF"/>
</g>
</svg>
