<svg width="20" height="19" viewBox="0 0 20 19" fill="none" xmlns="http://www.w3.org/2000/svg">
<path fill-rule="evenodd" clip-rule="evenodd" d="M9.99967 11.9678C9.31051 11.9678 8.74967 11.4575 8.74967 10.8304C8.74967 10.2034 9.31051 9.69308 9.99967 9.69308C10.6888 9.69308 11.2497 10.2034 11.2497 10.8304C11.2497 11.4575 10.6888 11.9678 9.99967 11.9678ZM9.99902 8.17661C8.39069 8.17661 7.08236 9.36704 7.08236 10.8304C7.08236 12.2938 8.39069 13.4843 9.99902 13.4843C11.6074 13.4843 12.9157 12.2938 12.9157 10.8304C12.9157 9.36704 11.6074 8.17661 9.99902 8.17661ZM16.6657 13.8634C16.6657 14.2812 16.2924 14.6216 15.8324 14.6216H4.16569C3.70569 14.6216 3.33236 14.2812 3.33236 13.8634V7.79749C3.33236 7.3797 3.70569 7.03926 4.16569 7.03926H15.8324C16.2924 7.03926 16.6657 7.3797 16.6657 7.79749V13.8634ZM8.33236 4.38543C8.33236 4.17615 8.51986 4.00631 8.74902 4.00631H11.249C11.4782 4.00631 11.6657 4.17615 11.6657 4.38543V5.52278H8.33236V4.38543ZM15.8327 5.52278H13.3327V4.38543C13.3327 3.34058 12.3985 2.48984 11.2493 2.48984H8.74935C7.60018 2.48984 6.66602 3.34058 6.66602 4.38543V5.52278H4.16602C2.78768 5.52278 1.66602 6.54337 1.66602 7.79749V13.8634C1.66602 15.1175 2.78768 16.1381 4.16602 16.1381H15.8327C17.211 16.1381 18.3327 15.1175 18.3327 13.8634V7.79749C18.3327 6.54337 17.211 5.52278 15.8327 5.52278Z" fill="white"/>
<mask id="mask0_1942_10833" style="mask-type:alpha" maskUnits="userSpaceOnUse" x="1" y="2" width="18" height="15">
<path fill-rule="evenodd" clip-rule="evenodd" d="M9.99967 11.9678C9.31051 11.9678 8.74967 11.4575 8.74967 10.8304C8.74967 10.2034 9.31051 9.69308 9.99967 9.69308C10.6888 9.69308 11.2497 10.2034 11.2497 10.8304C11.2497 11.4575 10.6888 11.9678 9.99967 11.9678ZM9.99902 8.17661C8.39069 8.17661 7.08236 9.36704 7.08236 10.8304C7.08236 12.2938 8.39069 13.4843 9.99902 13.4843C11.6074 13.4843 12.9157 12.2938 12.9157 10.8304C12.9157 9.36704 11.6074 8.17661 9.99902 8.17661ZM16.6657 13.8634C16.6657 14.2812 16.2924 14.6216 15.8324 14.6216H4.16569C3.70569 14.6216 3.33236 14.2812 3.33236 13.8634V7.79749C3.33236 7.3797 3.70569 7.03926 4.16569 7.03926H15.8324C16.2924 7.03926 16.6657 7.3797 16.6657 7.79749V13.8634ZM8.33236 4.38543C8.33236 4.17615 8.51986 4.00631 8.74902 4.00631H11.249C11.4782 4.00631 11.6657 4.17615 11.6657 4.38543V5.52278H8.33236V4.38543ZM15.8327 5.52278H13.3327V4.38543C13.3327 3.34058 12.3985 2.48984 11.2493 2.48984H8.74935C7.60018 2.48984 6.66602 3.34058 6.66602 4.38543V5.52278H4.16602C2.78768 5.52278 1.66602 6.54337 1.66602 7.79749V13.8634C1.66602 15.1175 2.78768 16.1381 4.16602 16.1381H15.8327C17.211 16.1381 18.3327 15.1175 18.3327 13.8634V7.79749C18.3327 6.54337 17.211 5.52278 15.8327 5.52278Z" fill="white"/>
</mask>
<g mask="url(#mask0_1942_10833)">
<rect y="0.215118" width="20" height="18.1977" fill="white"/>
</g>
</svg>
