<svg width="24" height="24" viewBox="0 0 24 24" fill="none" xmlns="http://www.w3.org/2000/svg">
<path fill-rule="evenodd" clip-rule="evenodd" d="M9.9 18C9.6 18 9.4 17.9 9.2 17.7L4.3 12.5C3.9 12.1 3.9 11.5 4.3 11.1C4.7 10.7 5.3 10.7 5.7 11.1L9.8 15.5L18.2 6.3C18.6 5.9 19.2 5.9 19.6 6.2C20 6.6 20 7.2 19.7 7.6L10.6 17.6C10.4 17.9 10.1 18 9.9 18Z" fill="#12DB63"/>
<mask id="mask0_816_5384" style="mask-type:alpha" maskUnits="userSpaceOnUse" x="4" y="5" width="16" height="13">
<path fill-rule="evenodd" clip-rule="evenodd" d="M9.9 18C9.6 18 9.4 17.9 9.2 17.7L4.3 12.5C3.9 12.1 3.9 11.5 4.3 11.1C4.7 10.7 5.3 10.7 5.7 11.1L9.8 15.5L18.2 6.3C18.6 5.9 19.2 5.9 19.6 6.2C20 6.6 20 7.2 19.7 7.6L10.6 17.6C10.4 17.9 10.1 18 9.9 18Z" fill="white"/>
</mask>
<g mask="url(#mask0_816_5384)">
<path d="M24 0H0V24H24V0Z" fill="#12DB63"/>
</g>
</svg>
