<svg width="20" height="20" viewBox="0 0 20 20" fill="none" xmlns="http://www.w3.org/2000/svg">
<path fill-rule="evenodd" clip-rule="evenodd" d="M13.3327 9.1665H10.8327V6.6665C10.8327 6.20567 10.4593 5.83317 9.99935 5.83317C9.53935 5.83317 9.16602 6.20567 9.16602 6.6665V9.99984C9.16602 10.4607 9.53935 10.8332 9.99935 10.8332H13.3327C13.7935 10.8332 14.166 10.4607 14.166 9.99984C14.166 9.539 13.7935 9.1665 13.3327 9.1665ZM9.99935 16.6665C6.32352 16.6665 3.33268 13.6757 3.33268 9.99984C3.33268 6.324 6.32352 3.33317 9.99935 3.33317C13.6752 3.33317 16.666 6.324 16.666 9.99984C16.666 13.6757 13.6752 16.6665 9.99935 16.6665ZM9.99935 1.6665C5.40435 1.6665 1.66602 5.40484 1.66602 9.99984C1.66602 14.5948 5.40435 18.3332 9.99935 18.3332C14.5943 18.3332 18.3327 14.5948 18.3327 9.99984C18.3327 5.40484 14.5943 1.6665 9.99935 1.6665Z" fill="#535861"/>
<mask id="mask0_1961_12112" style="mask-type:alpha" maskUnits="userSpaceOnUse" x="1" y="1" width="18" height="18">
<path fill-rule="evenodd" clip-rule="evenodd" d="M13.3327 9.1665H10.8327V6.6665C10.8327 6.20567 10.4593 5.83317 9.99935 5.83317C9.53935 5.83317 9.16602 6.20567 9.16602 6.6665V9.99984C9.16602 10.4607 9.53935 10.8332 9.99935 10.8332H13.3327C13.7935 10.8332 14.166 10.4607 14.166 9.99984C14.166 9.539 13.7935 9.1665 13.3327 9.1665ZM9.99935 16.6665C6.32352 16.6665 3.33268 13.6757 3.33268 9.99984C3.33268 6.324 6.32352 3.33317 9.99935 3.33317C13.6752 3.33317 16.666 6.324 16.666 9.99984C16.666 13.6757 13.6752 16.6665 9.99935 16.6665ZM9.99935 1.6665C5.40435 1.6665 1.66602 5.40484 1.66602 9.99984C1.66602 14.5948 5.40435 18.3332 9.99935 18.3332C14.5943 18.3332 18.3327 14.5948 18.3327 9.99984C18.3327 5.40484 14.5943 1.6665 9.99935 1.6665Z" fill="white"/>
</mask>
<g mask="url(#mask0_1961_12112)">
<rect width="20" height="20" fill="#535861"/>
</g>
</svg>
