<svg width="48" height="48" viewBox="0 0 48 48" fill="none" xmlns="http://www.w3.org/2000/svg">
<rect width="48" height="48" rx="4" fill="#C5FFD5"/>
<path fill-rule="evenodd" clip-rule="evenodd" d="M23.821 27.5059C23.99 27.5059 24.16 27.5489 24.313 27.6349L29 30.2859V17.3339C29 17.1329 28.879 16.9999 28.8 16.9999H19.2C19.12 16.9999 19 17.1329 19 17.3339V30.2339L23.306 27.6489C23.465 27.5539 23.643 27.5059 23.821 27.5059ZM18 32.9999C17.83 32.9999 17.66 32.9569 17.507 32.8699C17.194 32.6929 17 32.3599 17 31.9999V17.3339C17 16.0469 17.987 14.9999 19.2 14.9999H28.8C30.013 14.9999 31 16.0469 31 17.3339V31.9999C31 32.3559 30.811 32.6849 30.504 32.8639C30.196 33.0439 29.818 33.0469 29.508 32.8709L23.836 29.6629L18.514 32.8579C18.356 32.9519 18.178 32.9999 18 32.9999Z" fill="#4885FF"/>
<mask id="mask0_650_5063" style="mask-type:alpha" maskUnits="userSpaceOnUse" x="17" y="14" width="14" height="20">
<path fill-rule="evenodd" clip-rule="evenodd" d="M23.821 27.5059C23.99 27.5059 24.16 27.5489 24.313 27.6349L29 30.2859V17.3339C29 17.1329 28.879 16.9999 28.8 16.9999H19.2C19.12 16.9999 19 17.1329 19 17.3339V30.2339L23.306 27.6489C23.465 27.5539 23.643 27.5059 23.821 27.5059ZM18 32.9999C17.83 32.9999 17.66 32.9569 17.507 32.8699C17.194 32.6929 17 32.3599 17 31.9999V17.3339C17 16.0469 17.987 14.9999 19.2 14.9999H28.8C30.013 14.9999 31 16.0469 31 17.3339V31.9999C31 32.3559 30.811 32.6849 30.504 32.8639C30.196 33.0439 29.818 33.0469 29.508 32.8709L23.836 29.6629L18.514 32.8579C18.356 32.9519 18.178 32.9999 18 32.9999Z" fill="white"/>
</mask>
<g mask="url(#mask0_650_5063)">
<rect x="12" y="12" width="24" height="24" fill="#4885FF"/>
</g>
</svg>
