<svg width="24" height="24" viewBox="0 0 24 24" fill="none" xmlns="http://www.w3.org/2000/svg">
<path fill-rule="evenodd" clip-rule="evenodd" d="M12.0002 13.5C11.2002 13.5 10.5002 12.8 10.5002 12C10.5002 11.2 11.2002 10.5 12.0002 10.5C12.8002 10.5 13.5002 11.2 13.5002 12C13.5002 12.8 12.8002 13.5 12.0002 13.5ZM12.0002 8.5C10.1002 8.5 8.5002 10.1 8.5002 12C8.5002 13.9 10.1002 15.5 12.0002 15.5C13.9002 15.5 15.5002 13.9 15.5002 12C15.5002 10.1 13.9002 8.5 12.0002 8.5ZM12.2002 17C7.9002 17.1 5.1002 13.4 4.2002 12C5.2002 10.4 7.8002 7.1 11.8002 7C16.1002 6.9 18.9002 10.6 19.8002 12C18.8002 13.6 16.2002 16.9 12.2002 17ZM21.9002 11.5C21.3002 10.4 17.7002 4.8 11.8002 5C6.2002 5.1 3.0002 10 2.1002 11.5C1.9002 11.8 1.9002 12.2 2.1002 12.5C2.7002 13.6 6.1002 19 12.0002 19C12.1002 19 12.2002 19 12.2002 19C17.7002 18.9 20.9002 14 21.8002 12.5C22.0002 12.2 22.0002 11.8 21.9002 11.5Z" fill="#A1A9B8"/>
<mask id="mask0_816_5416" style="mask-type:alpha" maskUnits="userSpaceOnUse" x="1" y="4" width="21" height="15">
<path fill-rule="evenodd" clip-rule="evenodd" d="M12.0002 13.5C11.2002 13.5 10.5002 12.8 10.5002 12C10.5002 11.2 11.2002 10.5 12.0002 10.5C12.8002 10.5 13.5002 11.2 13.5002 12C13.5002 12.8 12.8002 13.5 12.0002 13.5ZM12.0002 8.5C10.1002 8.5 8.5002 10.1 8.5002 12C8.5002 13.9 10.1002 15.5 12.0002 15.5C13.9002 15.5 15.5002 13.9 15.5002 12C15.5002 10.1 13.9002 8.5 12.0002 8.5ZM12.2002 17C7.9002 17.1 5.1002 13.4 4.2002 12C5.2002 10.4 7.8002 7.1 11.8002 7C16.1002 6.9 18.9002 10.6 19.8002 12C18.8002 13.6 16.2002 16.9 12.2002 17ZM21.9002 11.5C21.3002 10.4 17.7002 4.8 11.8002 5C6.2002 5.1 3.0002 10 2.1002 11.5C1.9002 11.8 1.9002 12.2 2.1002 12.5C2.7002 13.6 6.1002 19 12.0002 19C12.1002 19 12.2002 19 12.2002 19C17.7002 18.9 20.9002 14 21.8002 12.5C22.0002 12.2 22.0002 11.8 21.9002 11.5Z" fill="white"/>
</mask>
<g mask="url(#mask0_816_5416)">
<path d="M24 0H0V24H24V0Z" fill="#A1A9B8"/>
</g>
</svg>
