<svg width="32" height="32" viewBox="0 0 32 32" fill="none" xmlns="http://www.w3.org/2000/svg">
<rect width="32" height="32" rx="4" fill="#E6EBF4"/>
<path fill-rule="evenodd" clip-rule="evenodd" d="M19.3333 10.3333C19.3333 10.1493 19.1833 10 19 10H17.3333C15.492 10 14 11.3433 14 13V14.8H12.3333C12.1493 14.8 12 14.9493 12 15.1333V16.8667C12 17.0507 12.1493 17.2 12.3333 17.2H14V21.6667C14 21.8507 14.1493 22 14.3333 22H16.3333C16.5167 22 16.6667 21.8507 16.6667 21.6667V17.2H18.4127C18.5627 17.2 18.694 17.1 18.7347 16.956L19.2153 15.2227C19.2747 15.0107 19.1147 14.8 18.8947 14.8H16.6667V13C16.6667 12.6687 16.9647 12.4 17.3333 12.4H19C19.1833 12.4 19.3333 12.2507 19.3333 12.0667V10.3333Z" fill="#535861"/>
<mask id="mask0_1977_9827" style="mask-type:alpha" maskUnits="userSpaceOnUse" x="12" y="10" width="8" height="12">
<path fill-rule="evenodd" clip-rule="evenodd" d="M19.3333 10.3333C19.3333 10.1493 19.1833 10 19 10H17.3333C15.492 10 14 11.3433 14 13V14.8H12.3333C12.1493 14.8 12 14.9493 12 15.1333V16.8667C12 17.0507 12.1493 17.2 12.3333 17.2H14V21.6667C14 21.8507 14.1493 22 14.3333 22H16.3333C16.5167 22 16.6667 21.8507 16.6667 21.6667V17.2H18.4127C18.5627 17.2 18.694 17.1 18.7347 16.956L19.2153 15.2227C19.2747 15.0107 19.1147 14.8 18.8947 14.8H16.6667V13C16.6667 12.6687 16.9647 12.4 17.3333 12.4H19C19.1833 12.4 19.3333 12.2507 19.3333 12.0667V10.3333Z" fill="white"/>
</mask>
<g mask="url(#mask0_1977_9827)">
<rect x="8" y="8" width="16" height="16" fill="#535861"/>
</g>
</svg>
