<svg width="56" height="56" viewBox="0 0 56 56" fill="none" xmlns="http://www.w3.org/2000/svg">
<circle cx="28" cy="28" r="28" fill="#DFE8FA"/>
<path fill-rule="evenodd" clip-rule="evenodd" d="M29 21C29 21.553 28.552 22 28 22C27.448 22 27 21.553 27 21V19C27 18.447 27.448 18 28 18C28.552 18 29 18.447 29 19V21ZM29 31.4598C29 31.1028 29.191 30.7718 29.501 30.5928C30.426 30.0618 31 29.0678 31 27.9998C31 26.3458 29.654 24.9998 28 24.9998C26.346 24.9998 25 26.3458 25 27.9998C25 29.0678 25.574 30.0618 26.499 30.5928C26.809 30.7718 27 31.1028 27 31.4598V35.9998H29V31.4598ZM23 27.9998C23 25.2428 25.243 22.9998 28 22.9998C30.757 22.9998 33 25.2428 33 27.9998C33 29.5788 32.246 31.0618 31 31.9958V35.9998C31 37.1028 30.103 37.9998 29 37.9998H27C25.897 37.9998 25 37.1028 25 35.9998V31.9958C23.753 31.0618 23 29.5788 23 27.9998ZM37 27H35C34.447 27 34 27.447 34 28C34 28.553 34.447 29 35 29H37C37.553 29 38 28.553 38 28C38 27.447 37.553 27 37 27ZM19 27H21C21.552 27 22 27.447 22 28C22 28.553 21.552 29 21 29H19C18.448 29 18 28.553 18 28C18 27.447 18.448 27 19 27ZM23.6597 22.418L22.2207 21.028C21.8237 20.645 21.1917 20.657 20.8067 21.054C20.4227 21.45 20.4337 22.084 20.8307 22.468L22.2697 23.857C22.4647 24.045 22.7147 24.138 22.9647 24.138C23.2267 24.138 23.4877 24.035 23.6837 23.832C24.0677 23.436 24.0567 22.802 23.6597 22.418ZM33.7794 21.0297C34.1754 20.6467 34.8114 20.6577 35.1924 21.0537C35.5764 21.4497 35.5654 22.0837 35.1684 22.4667L33.7294 23.8567C33.5364 24.0437 33.2854 24.1377 33.0354 24.1377C32.7734 24.1377 32.5114 24.0347 32.3164 23.8317C31.9324 23.4357 31.9434 22.8017 32.3404 22.4187L33.7794 21.0297Z" fill="#231F20"/>
<mask id="mask0_299_2138" style="mask-type:alpha" maskUnits="userSpaceOnUse" x="18" y="18" width="20" height="20">
<path fill-rule="evenodd" clip-rule="evenodd" d="M29 21C29 21.553 28.552 22 28 22C27.448 22 27 21.553 27 21V19C27 18.447 27.448 18 28 18C28.552 18 29 18.447 29 19V21ZM29 31.4598C29 31.1028 29.191 30.7718 29.501 30.5928C30.426 30.0618 31 29.0678 31 27.9998C31 26.3458 29.654 24.9998 28 24.9998C26.346 24.9998 25 26.3458 25 27.9998C25 29.0678 25.574 30.0618 26.499 30.5928C26.809 30.7718 27 31.1028 27 31.4598V35.9998H29V31.4598ZM23 27.9998C23 25.2428 25.243 22.9998 28 22.9998C30.757 22.9998 33 25.2428 33 27.9998C33 29.5788 32.246 31.0618 31 31.9958V35.9998C31 37.1028 30.103 37.9998 29 37.9998H27C25.897 37.9998 25 37.1028 25 35.9998V31.9958C23.753 31.0618 23 29.5788 23 27.9998ZM37 27H35C34.447 27 34 27.447 34 28C34 28.553 34.447 29 35 29H37C37.553 29 38 28.553 38 28C38 27.447 37.553 27 37 27ZM19 27H21C21.552 27 22 27.447 22 28C22 28.553 21.552 29 21 29H19C18.448 29 18 28.553 18 28C18 27.447 18.448 27 19 27ZM23.6597 22.418L22.2207 21.028C21.8237 20.645 21.1917 20.657 20.8067 21.054C20.4227 21.45 20.4337 22.084 20.8307 22.468L22.2697 23.857C22.4647 24.045 22.7147 24.138 22.9647 24.138C23.2267 24.138 23.4877 24.035 23.6837 23.832C24.0677 23.436 24.0567 22.802 23.6597 22.418ZM33.7794 21.0297C34.1754 20.6467 34.8114 20.6577 35.1924 21.0537C35.5764 21.4497 35.5654 22.0837 35.1684 22.4667L33.7294 23.8567C33.5364 24.0437 33.2854 24.1377 33.0354 24.1377C32.7734 24.1377 32.5114 24.0347 32.3164 23.8317C31.9324 23.4357 31.9434 22.8017 32.3404 22.4187L33.7794 21.0297Z" fill="white"/>
</mask>
<g mask="url(#mask0_299_2138)">
<rect x="16" y="16" width="24" height="24" fill="#4885FF"/>
</g>
</svg>
