<svg width="16" height="16" viewBox="0 0 16 16" fill="none" xmlns="http://www.w3.org/2000/svg">
<path fill-rule="evenodd" clip-rule="evenodd" d="M1.99991 3.5C1.99991 2.672 2.67191 2 3.49991 2C4.32791 2 4.99991 2.672 4.99991 3.5C4.99991 4.328 4.32791 5 3.49991 5C2.67191 5 1.99991 4.328 1.99991 3.5ZM10.1 5.60027C7.94604 5.60027 6.19937 7.33627 6.19937 9.47627V13.3996C6.19937 13.7309 6.46871 14.0003 6.80004 14.0003H8.19937C8.53071 14.0003 8.80004 13.7309 8.80004 13.3996V9.47627C8.80004 8.71894 9.45604 8.11361 10.2347 8.19161C10.9107 8.25894 11.3994 8.87694 11.3994 9.55627V13.3996C11.3994 13.7309 11.6687 14.0003 12 14.0003H13.3994C13.7307 14.0003 14 13.7309 14 13.3996V9.47627C14 7.33627 12.2534 5.60027 10.1 5.60027ZM4.39951 6.19986H2.60018C2.26885 6.19986 1.99951 6.46853 1.99951 6.79986V13.3999C1.99951 13.7312 2.26885 13.9999 2.60018 13.9999H4.39951C4.73084 13.9999 4.99951 13.7312 4.99951 13.3999V6.79986C4.99951 6.46853 4.73084 6.19986 4.39951 6.19986Z" fill="#535861"/>
<mask id="mask0_2208_3898" style="mask-type:alpha" maskUnits="userSpaceOnUse" x="1" y="2" width="13" height="13">
<path fill-rule="evenodd" clip-rule="evenodd" d="M1.99991 3.5C1.99991 2.672 2.67191 2 3.49991 2C4.32791 2 4.99991 2.672 4.99991 3.5C4.99991 4.328 4.32791 5 3.49991 5C2.67191 5 1.99991 4.328 1.99991 3.5ZM10.1 5.60027C7.94604 5.60027 6.19937 7.33627 6.19937 9.47627V13.3996C6.19937 13.7309 6.46871 14.0003 6.80004 14.0003H8.19937C8.53071 14.0003 8.80004 13.7309 8.80004 13.3996V9.47627C8.80004 8.71894 9.45604 8.11361 10.2347 8.19161C10.9107 8.25894 11.3994 8.87694 11.3994 9.55627V13.3996C11.3994 13.7309 11.6687 14.0003 12 14.0003H13.3994C13.7307 14.0003 14 13.7309 14 13.3996V9.47627C14 7.33627 12.2534 5.60027 10.1 5.60027ZM4.39951 6.19986H2.60018C2.26885 6.19986 1.99951 6.46853 1.99951 6.79986V13.3999C1.99951 13.7312 2.26885 13.9999 2.60018 13.9999H4.39951C4.73084 13.9999 4.99951 13.7312 4.99951 13.3999V6.79986C4.99951 6.46853 4.73084 6.19986 4.39951 6.19986Z" fill="white"/>
</mask>
<g mask="url(#mask0_2208_3898)">
<rect width="16" height="16" fill="#535861"/>
</g>
</svg>
