<svg width="30" height="30" viewBox="0 0 30 30" fill="none" xmlns="http://www.w3.org/2000/svg">
<g id="Icon/Outline/menu">
<path id="Mask" fill-rule="evenodd" clip-rule="evenodd" d="M4.935 7.5H25.0638C25.7163 7.5 26.25 8.03375 26.25 8.68625V8.81375C26.25 9.46625 25.7163 10 25.0638 10H4.935C4.2825 10 3.75 9.46625 3.75 8.81375V8.68625C3.75 8.03375 4.2825 7.5 4.935 7.5ZM25.0638 13.75H4.935C4.2825 13.75 3.75 14.2838 3.75 14.9363V15.0637C3.75 15.7163 4.2825 16.25 4.935 16.25H25.0638C25.7163 16.25 26.25 15.7163 26.25 15.0637V14.9363C26.25 14.2838 25.7163 13.75 25.0638 13.75ZM25.0638 20H4.935C4.2825 20 3.75 20.5337 3.75 21.1862V21.3138C3.75 21.9663 4.2825 22.5 4.935 22.5H25.0638C25.7163 22.5 26.25 21.9663 26.25 21.3138V21.1862C26.25 20.5337 25.7163 20 25.0638 20Z" fill="#231F20"/>
<mask id="mask0_983_6179" style="mask-type:alpha" maskUnits="userSpaceOnUse" x="3" y="7" width="24" height="16">
<path id="Mask_2" fill-rule="evenodd" clip-rule="evenodd" d="M4.935 7.5H25.0638C25.7163 7.5 26.25 8.03375 26.25 8.68625V8.81375C26.25 9.46625 25.7163 10 25.0638 10H4.935C4.2825 10 3.75 9.46625 3.75 8.81375V8.68625C3.75 8.03375 4.2825 7.5 4.935 7.5ZM25.0638 13.75H4.935C4.2825 13.75 3.75 14.2838 3.75 14.9363V15.0637C3.75 15.7163 4.2825 16.25 4.935 16.25H25.0638C25.7163 16.25 26.25 15.7163 26.25 15.0637V14.9363C26.25 14.2838 25.7163 13.75 25.0638 13.75ZM25.0638 20H4.935C4.2825 20 3.75 20.5337 3.75 21.1862V21.3138C3.75 21.9663 4.2825 22.5 4.935 22.5H25.0638C25.7163 22.5 26.25 21.9663 26.25 21.3138V21.1862C26.25 20.5337 25.7163 20 25.0638 20Z" fill="white"/>
</mask>
<g mask="url(#mask0_983_6179)">
<g id="&#240;&#159;&#142;&#168; Color">
<rect id="Base" width="30" height="30" fill="#23272F"/>
</g>
</g>
</g>
</svg>
