<svg width="103" height="109" viewBox="0 0 103 109" fill="none" xmlns="http://www.w3.org/2000/svg">
<path d="M25.1869 7.86254C24.3422 7.81132 24.1118 6.65883 24.8797 6.30028C34.9391 1.61348 68.496 -10.6541 92.2239 20.8729C105.688 38.7749 105.713 61.0308 96.8568 78.5742C88.6404 94.8628 70.7741 108.18 53.4965 108.923C24.4446 110.178 8.44682 93.7615 0.102384 76.4229C-0.307158 75.5778 0.639909 74.7326 1.48459 75.1424C9.16352 78.8816 30.7669 92.0712 53.4965 78.5998C74.9207 65.8968 74.9719 36.9053 57.2848 20.4631C46.2015 10.1675 31.6116 8.2211 25.1869 7.86254Z" fill="#FBC726"/>
<path d="M53.497 78.5998C74.9212 65.8968 74.9724 36.9053 57.2853 20.4631C46.2276 10.1931 31.6889 8.22108 25.2386 7.88814C25.2642 7.86253 25.2898 7.83692 25.2898 7.83692C25.2898 7.83692 56.8758 -1.844 74.5373 27.2244C92.2244 56.2928 74.5373 80.2902 60.6384 86.6161C46.7652 92.9164 18.9675 96.7068 1.28033 75.2192C1.22913 75.168 1.17794 75.0912 1.15234 75.0399C1.25473 75.0655 1.38271 75.0912 1.4851 75.1424C9.16402 78.8816 30.7674 92.0712 53.497 78.5998Z" fill="#FBBE0D"/>
<path d="M1.28074 75.2192C1.28074 75.2192 23.1657 117.349 63.5824 100.062C103.999 82.8001 100.62 44.4605 95.1684 33.0893C89.7675 21.8717 67.5755 -7.78572 26.5444 5.58317C38.2164 0.512216 69.6744 -9.09187 92.2248 20.8729C105.689 38.7749 105.714 61.0308 96.8578 78.5742C88.6413 94.8628 70.775 108.18 53.4974 108.923C25.0342 110.152 9.11325 94.4274 0.615234 77.473C1.05037 76.0644 1.28074 75.2192 1.28074 75.2192Z" fill="#FBB903"/>
<path d="M83.5732 50.1717C83.2916 52.1182 81.5767 53.8341 79.4778 53.5524C77.4045 53.245 76.1502 51.2474 76.3806 49.2497C76.4574 48.4302 75.2032 48.4558 75.1264 49.2497C74.8448 51.8364 76.6622 54.4744 79.3242 54.8073C81.9862 55.1659 84.4179 53.0658 84.8018 50.5047C84.9042 49.7107 83.7012 49.3778 83.5732 50.1717Z" fill="#482A02"/>
<path d="M81.4471 54.4744C81.7798 55.1147 82.1126 55.7549 82.4197 56.3952C82.7781 57.1123 83.8787 56.472 83.5204 55.7549C83.1876 55.1147 82.8548 54.4744 82.5477 53.8341C82.1637 53.117 81.0887 53.7573 81.4471 54.4744Z" fill="#482A02"/>
<path d="M77.9664 54.4488C77.8384 55.089 77.7104 55.7037 77.5569 56.344C77.3777 57.1379 78.6063 57.4709 78.7855 56.6769C78.9135 56.0367 79.0415 55.422 79.195 54.7817C79.3486 53.9878 78.12 53.6548 77.9664 54.4488Z" fill="#482A02"/>
<path d="M75.5088 51.9645C74.9456 52.2462 74.3825 52.5279 73.8194 52.8097C73.1027 53.1682 73.7426 54.2695 74.4593 53.9109C75.0224 53.6292 75.5856 53.3475 76.1487 53.0658C76.8654 52.7072 76.2255 51.606 75.5088 51.9645Z" fill="#482A02"/>
<path d="M96.6528 65.7432C98.0094 66.3579 94.7587 76.4741 92.6598 75.4241C90.5353 74.3741 94.3236 64.6931 96.6528 65.7432Z" fill="#FBD567"/>
<path d="M64.7596 99.4215C63.9661 97.4751 79.6311 87.3844 80.8853 89.9199C82.114 92.4554 65.9882 102.392 64.7596 99.4215Z" fill="#FBD567"/>
<path d="M92.6582 28.2488C94.7315 27.5061 101.412 42.6165 98.1358 44.2556C96.0113 45.3057 89.689 29.2989 92.6582 28.2488Z" fill="#FBD567"/>
<path d="M84.0071 63.6687C84.1095 65.5127 82.4713 67.0749 80.3724 67.1774C78.2735 67.2798 76.5073 65.8712 76.4049 64.0529C76.3026 62.2089 77.9407 60.6466 80.0396 60.5442C82.1385 60.4161 83.9047 61.8247 84.0071 63.6687Z" fill="#FFD0D7"/>
<path d="M84.698 1.2037C83.3926 0.102435 81.3449 4.27701 79.9115 3.73918C78.4013 3.17574 76.8143 0.998817 75.9184 1.74153C74.9202 2.58669 76.9167 5.25023 76.5583 6.22344C76.2 7.24788 72.9748 9.27114 73.4356 10.1163C73.8707 10.9615 77.7102 10.0139 78.606 10.4749C79.5019 10.9358 79.8347 14.7775 81.0633 14.8543C82.3943 14.9311 82.5479 10.3212 83.239 10.1163C83.9301 9.91141 87.2832 9.86019 87.5392 8.98942C87.7952 8.11865 83.7765 6.65883 83.7765 5.94172C83.7253 5.22462 85.5683 1.92081 84.698 1.2037Z" fill="#F9EC6C"/>
<path d="M61.8913 5.09659C60.765 4.66121 60.3555 7.9394 59.2548 7.91379C58.103 7.88818 56.516 6.78691 56.1065 7.50402C55.6201 8.29796 57.5911 9.62972 57.5911 10.3724C57.5911 11.1408 55.9017 13.2409 56.388 13.7019C56.8744 14.1629 59.2292 12.6518 59.9459 12.7543C60.6626 12.8567 61.7889 15.3666 62.608 15.1361C63.5295 14.88 62.5568 11.7554 62.9663 11.4481C63.3759 11.1408 65.6284 10.3212 65.6028 9.68094C65.5772 9.04067 62.5312 8.98945 62.352 8.50284C62.1728 8.04185 62.6336 5.40392 61.8913 5.09659Z" fill="#F9EC6C"/>
<path d="M46.3545 32.2442C44.3324 31.6807 44.2044 37.3663 42.3359 37.52C40.365 37.6737 37.4726 36.0602 36.8583 37.3663C36.1927 38.8262 39.7507 40.7726 39.8786 42.0275C40.0066 43.3593 37.4726 47.2521 38.394 47.9692C39.3155 48.6864 43.1038 45.6643 44.3324 45.7155C45.561 45.7667 47.9159 49.8645 49.3237 49.3266C50.8595 48.7376 48.6582 43.5129 49.2981 42.9239C49.938 42.3348 53.6495 40.5677 53.4959 39.4664C53.3424 38.3652 48.1207 38.8005 47.7367 38.0066C47.3528 37.2383 47.6855 32.6283 46.3545 32.2442Z" fill="#FFD521"/>
<path d="M41.032 89.1516C39.7266 88.0503 37.6789 92.2249 36.2455 91.6871C34.7353 91.1236 33.1483 88.9467 32.2524 89.6894C31.2541 90.5346 33.2507 93.1981 32.8923 94.1713C32.534 95.1958 29.3088 97.219 29.7696 98.0642C30.2047 98.9093 34.0442 97.9617 34.94 98.4227C35.8359 98.8837 36.1687 102.725 37.3973 102.802C38.7283 102.879 38.8819 98.2691 39.573 98.0642C40.2641 97.8593 43.6172 97.8081 43.8732 96.9373C44.1292 96.0665 40.1105 94.6067 40.1105 93.8896C40.0593 93.1725 41.9023 89.8687 41.032 89.1516Z" fill="#F9EC6C"/>
<path d="M15.3581 88.7674C14.2318 88.332 13.8223 91.6102 12.7216 91.5846C11.5698 91.559 9.98282 90.4577 9.57328 91.1748C9.08695 91.9687 11.0579 93.3005 11.0579 94.0432C11.0579 94.8115 9.36851 96.9116 9.85484 97.3726C10.3412 97.8336 12.696 96.3226 13.4127 96.425C14.1294 96.5275 15.2557 99.0373 16.0748 98.8068C16.9962 98.5507 16.0236 95.4262 16.4331 95.1189C16.8427 94.8115 19.0951 93.992 19.0696 93.3517C19.044 92.7114 15.998 92.6602 15.8188 92.1736C15.6652 91.7126 16.126 89.0747 15.3581 88.7674Z" fill="#F9EC6C"/>
</svg>
