<svg width="24" height="24" viewBox="0 0 24 24" fill="none" xmlns="http://www.w3.org/2000/svg">
<path fill-rule="evenodd" clip-rule="evenodd" d="M7.9 9.1L13.1 10.2C13.5 10.3 13.8 10.6 13.9 11L15 16.2L18.5 5.6L7.9 9.1ZM14.7 21C14.6 21 14.6 21 14.7 21C14.2 21 13.8 20.6 13.7 20.2L12 12L3.8 10.3C3.4 10.2 3 9.8 3 9.4C3 8.9 3.3 8.5 3.7 8.4L19.7 3.1C20.1 3 20.5 3.1 20.7 3.3C20.9 3.5 21.1 4 20.9 4.3L15.6 20.3C15.5 20.7 15.1 21 14.7 21Z" fill="#23272F"/>
<mask id="mask0_816_5456" style="mask-type:alpha" maskUnits="userSpaceOnUse" x="3" y="3" width="18" height="18">
<path fill-rule="evenodd" clip-rule="evenodd" d="M7.9 9.1L13.1 10.2C13.5 10.3 13.8 10.6 13.9 11L15 16.2L18.5 5.6L7.9 9.1ZM14.7 21C14.6 21 14.6 21 14.7 21C14.2 21 13.8 20.6 13.7 20.2L12 12L3.8 10.3C3.4 10.2 3 9.8 3 9.4C3 8.9 3.3 8.5 3.7 8.4L19.7 3.1C20.1 3 20.5 3.1 20.7 3.3C20.9 3.5 21.1 4 20.9 4.3L15.6 20.3C15.5 20.7 15.1 21 14.7 21Z" fill="white"/>
</mask>
<g mask="url(#mask0_816_5456)">
<path d="M24 0H0V24H24V0Z" fill="#23272F"/>
</g>
</svg>
