<svg width="24" height="24" viewBox="0 0 24 24" fill="none" xmlns="http://www.w3.org/2000/svg">
<path fill-rule="evenodd" clip-rule="evenodd" d="M18 10C18 9.4 17.6 9 17 9C16.4 9 16 9.4 16 10C16 10.6 16.4 11 17 11C17.6 11 18 10.6 18 10ZM20 10C20 11.7 18.7 13 17 13C15.3 13 14 11.7 14 10C14 8.3 15.3 7 17 7C18.7 7 20 8.3 20 10ZM11 7C11 5.9 10.1 5 9 5C7.9 5 7 5.9 7 7C7 8.1 7.9 9 9 9C10.1 9 11 8.1 11 7ZM13 7C13 9.2 11.2 11 9 11C6.8 11 5 9.2 5 7C5 4.8 6.8 3 9 3C11.2 3 13 4.8 13 7ZM13.9 15C14.8 14.3 15.8 14 17 14C19.8 14 22 16.2 22 19C22 19.6 21.6 20 21 20C20.4 20 20 19.6 20 19C20 17.3 18.7 16 17 16C16.3 16 15.7 16.2 15.1 16.6C15.6 17.6 16 18.7 16 20C16 20.6 15.6 21 15 21C14.4 21 14 20.6 14 20C14 17.2 11.8 15 9 15C6.2 15 4 17.2 4 20C4 20.6 3.6 21 3 21C2.4 21 2 20.6 2 20C2 16.1 5.1 13 9 13C10.9 13 12.7 13.8 13.9 15Z" fill="#1EE100"/>
<mask id="mask0_816_5356" style="mask-type:alpha" maskUnits="userSpaceOnUse" x="2" y="3" width="20" height="18">
<path fill-rule="evenodd" clip-rule="evenodd" d="M18 10C18 9.4 17.6 9 17 9C16.4 9 16 9.4 16 10C16 10.6 16.4 11 17 11C17.6 11 18 10.6 18 10ZM20 10C20 11.7 18.7 13 17 13C15.3 13 14 11.7 14 10C14 8.3 15.3 7 17 7C18.7 7 20 8.3 20 10ZM11 7C11 5.9 10.1 5 9 5C7.9 5 7 5.9 7 7C7 8.1 7.9 9 9 9C10.1 9 11 8.1 11 7ZM13 7C13 9.2 11.2 11 9 11C6.8 11 5 9.2 5 7C5 4.8 6.8 3 9 3C11.2 3 13 4.8 13 7ZM13.9 15C14.8 14.3 15.8 14 17 14C19.8 14 22 16.2 22 19C22 19.6 21.6 20 21 20C20.4 20 20 19.6 20 19C20 17.3 18.7 16 17 16C16.3 16 15.7 16.2 15.1 16.6C15.6 17.6 16 18.7 16 20C16 20.6 15.6 21 15 21C14.4 21 14 20.6 14 20C14 17.2 11.8 15 9 15C6.2 15 4 17.2 4 20C4 20.6 3.6 21 3 21C2.4 21 2 20.6 2 20C2 16.1 5.1 13 9 13C10.9 13 12.7 13.8 13.9 15Z" fill="white"/>
</mask>
<g mask="url(#mask0_816_5356)">
<path d="M24 0H0V24H24V0Z" fill="#1EE100"/>
</g>
</svg>
