<svg width="20" height="20" viewBox="0 0 20 20" fill="none" xmlns="http://www.w3.org/2000/svg">
<path fill-rule="evenodd" clip-rule="evenodd" d="M8.3332 4.16667C9.25237 4.16667 9.99987 4.91417 9.99987 5.83334C9.99987 6.7525 9.25237 7.5 8.3332 7.5C7.41404 7.5 6.66654 6.7525 6.66654 5.83334C6.66654 4.91417 7.41404 4.16667 8.3332 4.16667ZM8.33333 9.16667C10.1717 9.16667 11.6667 7.67167 11.6667 5.83333C11.6667 3.995 10.1717 2.5 8.33333 2.5C6.495 2.5 5 3.995 5 5.83333C5 7.67167 6.495 9.16667 8.33333 9.16667ZM8.33333 10.8333C5.1175 10.8333 2.5 13.45 2.5 16.6667C2.5 17.1267 2.8725 17.5 3.33333 17.5C3.79417 17.5 4.16667 17.1267 4.16667 16.6667C4.16667 14.3692 6.03583 12.5 8.33333 12.5C10.6308 12.5 12.5 14.3692 12.5 16.6667C12.5 17.1267 12.8725 17.5 13.3333 17.5C13.7942 17.5 14.1667 17.1267 14.1667 16.6667C14.1667 13.45 11.5492 10.8333 8.33333 10.8333ZM16.6668 5H17.5001C17.9585 5 18.3335 5.375 18.3335 5.83333C18.3335 6.29166 17.9585 6.66666 17.5001 6.66666H16.6668V7.5C16.6668 7.95833 16.2918 8.33333 15.8335 8.33333C15.3751 8.33333 15.0001 7.95833 15.0001 7.5V6.66666H14.1668C13.7085 6.66666 13.3335 6.29166 13.3335 5.83333C13.3335 5.375 13.7085 5 14.1668 5H15.0001V4.16666C15.0001 3.70833 15.3751 3.33333 15.8335 3.33333C16.2918 3.33333 16.6668 3.70833 16.6668 4.16666V5Z" fill="#115EED"/>
<mask id="mask0_650_5058" style="mask-type:alpha" maskUnits="userSpaceOnUse" x="2" y="2" width="17" height="16">
<path fill-rule="evenodd" clip-rule="evenodd" d="M8.3332 4.16667C9.25237 4.16667 9.99987 4.91417 9.99987 5.83334C9.99987 6.7525 9.25237 7.5 8.3332 7.5C7.41404 7.5 6.66654 6.7525 6.66654 5.83334C6.66654 4.91417 7.41404 4.16667 8.3332 4.16667ZM8.33333 9.16667C10.1717 9.16667 11.6667 7.67167 11.6667 5.83333C11.6667 3.995 10.1717 2.5 8.33333 2.5C6.495 2.5 5 3.995 5 5.83333C5 7.67167 6.495 9.16667 8.33333 9.16667ZM8.33333 10.8333C5.1175 10.8333 2.5 13.45 2.5 16.6667C2.5 17.1267 2.8725 17.5 3.33333 17.5C3.79417 17.5 4.16667 17.1267 4.16667 16.6667C4.16667 14.3692 6.03583 12.5 8.33333 12.5C10.6308 12.5 12.5 14.3692 12.5 16.6667C12.5 17.1267 12.8725 17.5 13.3333 17.5C13.7942 17.5 14.1667 17.1267 14.1667 16.6667C14.1667 13.45 11.5492 10.8333 8.33333 10.8333ZM16.6668 5H17.5001C17.9585 5 18.3335 5.375 18.3335 5.83333C18.3335 6.29166 17.9585 6.66666 17.5001 6.66666H16.6668V7.5C16.6668 7.95833 16.2918 8.33333 15.8335 8.33333C15.3751 8.33333 15.0001 7.95833 15.0001 7.5V6.66666H14.1668C13.7085 6.66666 13.3335 6.29166 13.3335 5.83333C13.3335 5.375 13.7085 5 14.1668 5H15.0001V4.16666C15.0001 3.70833 15.3751 3.33333 15.8335 3.33333C16.2918 3.33333 16.6668 3.70833 16.6668 4.16666V5Z" fill="white"/>
</mask>
<g mask="url(#mask0_650_5058)">
<rect width="20" height="20" fill="#115EED"/>
</g>
</svg>
