<svg width="25" height="24" viewBox="0 0 25 24" fill="none" xmlns="http://www.w3.org/2000/svg">
<path d="M10.0595 10.87C9.95947 10.86 9.83947 10.86 9.72947 10.87C7.34947 10.79 5.45947 8.84 5.45947 6.44C5.45947 3.99 7.43947 2 9.89947 2C12.3495 2 14.3395 3.99 14.3395 6.44C14.3295 8.84 12.4395 10.79 10.0595 10.87Z" stroke="#656070" stroke-width="1.5" stroke-linecap="round" stroke-linejoin="round"/>
<path d="M17.3097 4C19.2497 4 20.8097 5.57 20.8097 7.5C20.8097 9.39 19.3097 10.93 17.4397 11C17.3597 10.99 17.2697 10.99 17.1797 11" stroke="#656070" stroke-width="1.5" stroke-linecap="round" stroke-linejoin="round"/>
<path d="M5.05963 14.56C2.63963 16.18 2.63963 18.82 5.05963 20.43C7.80963 22.27 12.3196 22.27 15.0696 20.43C17.4896 18.81 17.4896 16.17 15.0696 14.56C12.3296 12.73 7.81963 12.73 5.05963 14.56Z" stroke="#656070" stroke-width="1.5" stroke-linecap="round" stroke-linejoin="round"/>
<path d="M19.2397 20C19.9597 19.85 20.6397 19.56 21.1997 19.13C22.7597 17.96 22.7597 16.03 21.1997 14.86C20.6497 14.44 19.9797 14.16 19.2697 14" stroke="#656070" stroke-width="1.5" stroke-linecap="round" stroke-linejoin="round"/>
</svg>
