<svg width="40" height="40" viewBox="0 0 40 40" fill="none" xmlns="http://www.w3.org/2000/svg">
<rect width="40" height="40" rx="4" fill="#12DB63"/>
<path fill-rule="evenodd" clip-rule="evenodd" d="M13 19C13 15.691 15.691 13 19 13C22.309 13 25 15.691 25 19C25 22.309 22.309 25 19 25C15.691 25 13 22.309 13 19ZM28.707 27.293L25.312 23.897C26.365 22.543 27 20.846 27 19C27 14.589 23.411 11 19 11C14.589 11 11 14.589 11 19C11 23.411 14.589 27 19 27C20.846 27 22.543 26.365 23.897 25.312L27.293 28.707C27.488 28.902 27.744 29 28 29C28.256 29 28.512 28.902 28.707 28.707C29.098 28.316 29.098 27.684 28.707 27.293Z" fill="white"/>
<mask id="mask0_1912_7883" style="mask-type:alpha" maskUnits="userSpaceOnUse" x="11" y="11" width="18" height="18">
<path fill-rule="evenodd" clip-rule="evenodd" d="M13 19C13 15.691 15.691 13 19 13C22.309 13 25 15.691 25 19C25 22.309 22.309 25 19 25C15.691 25 13 22.309 13 19ZM28.707 27.293L25.312 23.897C26.365 22.543 27 20.846 27 19C27 14.589 23.411 11 19 11C14.589 11 11 14.589 11 19C11 23.411 14.589 27 19 27C20.846 27 22.543 26.365 23.897 25.312L27.293 28.707C27.488 28.902 27.744 29 28 29C28.256 29 28.512 28.902 28.707 28.707C29.098 28.316 29.098 27.684 28.707 27.293Z" fill="white"/>
</mask>
<g mask="url(#mask0_1912_7883)">
<rect x="8" y="8" width="24" height="24" fill="white"/>
</g>
</svg>
