<svg width="16" height="16" viewBox="0 0 16 16" fill="none" xmlns="http://www.w3.org/2000/svg">
<path fill-rule="evenodd" clip-rule="evenodd" d="M5.38462 13.3334C10.2153 13.3334 13.01 9.58269 13.01 6.02335C13.01 5.92535 13.6966 5.33602 13.9906 4.10735C14.0506 3.85802 13.808 3.66135 13.5793 3.76602C12.9926 4.03535 12.3973 3.82202 12.1386 3.51535C11.144 2.43069 9.48062 2.37869 8.42262 3.39869C7.74062 4.05669 7.45129 5.03669 7.66262 5.97202C5.42862 6.13135 3.89462 5.07269 2.63329 3.62135C2.47062 3.43269 2.16862 3.53202 2.13462 3.78135C1.94795 5.16935 1.88929 8.54402 5.23329 10.482C4.65262 11.3167 3.51595 11.8094 2.25062 12.0207C1.97062 12.068 1.90395 12.456 2.15995 12.5814C3.16262 13.0747 4.26462 13.3327 5.38462 13.3314" fill="#535861"/>
<mask id="mask0_2208_3884" style="mask-type:alpha" maskUnits="userSpaceOnUse" x="2" y="2" width="12" height="12">
<path fill-rule="evenodd" clip-rule="evenodd" d="M5.38462 13.3334C10.2153 13.3334 13.01 9.58269 13.01 6.02335C13.01 5.92535 13.6966 5.33602 13.9906 4.10735C14.0506 3.85802 13.808 3.66135 13.5793 3.76602C12.9926 4.03535 12.3973 3.82202 12.1386 3.51535C11.144 2.43069 9.48062 2.37869 8.42262 3.39869C7.74062 4.05669 7.45129 5.03669 7.66262 5.97202C5.42862 6.13135 3.89462 5.07269 2.63329 3.62135C2.47062 3.43269 2.16862 3.53202 2.13462 3.78135C1.94795 5.16935 1.88929 8.54402 5.23329 10.482C4.65262 11.3167 3.51595 11.8094 2.25062 12.0207C1.97062 12.068 1.90395 12.456 2.15995 12.5814C3.16262 13.0747 4.26462 13.3327 5.38462 13.3314" fill="white"/>
</mask>
<g mask="url(#mask0_2208_3884)">
<rect width="16" height="16" fill="#535861"/>
</g>
</svg>
