<svg width="16" height="16" viewBox="0 0 16 16" fill="none" xmlns="http://www.w3.org/2000/svg">
<path fill-rule="evenodd" clip-rule="evenodd" d="M5.38462 13.3335C10.2153 13.3335 13.01 9.58285 13.01 6.02351C13.01 5.92551 13.6966 5.33618 13.9906 4.10751C14.0506 3.85818 13.808 3.66151 13.5793 3.76618C12.9926 4.03551 12.3973 3.82218 12.1386 3.51551C11.144 2.43085 9.48062 2.37885 8.42262 3.39885C7.74062 4.05685 7.45129 5.03685 7.66262 5.97218C5.42862 6.13151 3.89462 5.07285 2.63329 3.62151C2.47062 3.43285 2.16862 3.53218 2.13462 3.78151C1.94795 5.16951 1.88929 8.54418 5.23329 10.4822C4.65262 11.3168 3.51595 11.8095 2.25062 12.0208C1.97062 12.0682 1.90395 12.4562 2.15995 12.5815C3.16262 13.0748 4.26462 13.3328 5.38462 13.3315" fill="#535861"/>
<mask id="mask0_816_5398" style="mask-type:alpha" maskUnits="userSpaceOnUse" x="2" y="2" width="12" height="12">
<path fill-rule="evenodd" clip-rule="evenodd" d="M5.38462 13.3335C10.2153 13.3335 13.01 9.58285 13.01 6.02351C13.01 5.92551 13.6966 5.33618 13.9906 4.10751C14.0506 3.85818 13.808 3.66151 13.5793 3.76618C12.9926 4.03551 12.3973 3.82218 12.1386 3.51551C11.144 2.43085 9.48062 2.37885 8.42262 3.39885C7.74062 4.05685 7.45129 5.03685 7.66262 5.97218C5.42862 6.13151 3.89462 5.07285 2.63329 3.62151C2.47062 3.43285 2.16862 3.53218 2.13462 3.78151C1.94795 5.16951 1.88929 8.54418 5.23329 10.4822C4.65262 11.3168 3.51595 11.8095 2.25062 12.0208C1.97062 12.0682 1.90395 12.4562 2.15995 12.5815C3.16262 13.0748 4.26462 13.3328 5.38462 13.3315" fill="white"/>
</mask>
<g mask="url(#mask0_816_5398)">
<rect width="16" height="16" fill="#535861"/>
</g>
</svg>
