<svg width="16" height="16" viewBox="0 0 16 16" fill="none" xmlns="http://www.w3.org/2000/svg">
<mask id="mask0_1662_20813" style="mask-type:alpha" maskUnits="userSpaceOnUse" x="0" y="0" width="16" height="16">
<rect width="16" height="16" fill="#D9D9D9"/>
</mask>
<g mask="url(#mask0_1662_20813)">
<path d="M8.00008 10.668C8.83342 10.668 9.54186 10.3764 10.1254 9.7933C10.7085 9.20975 11.0001 8.5013 11.0001 7.66797C11.0001 6.83464 10.7085 6.12619 10.1254 5.54264C9.54186 4.95952 8.83342 4.66797 8.00008 4.66797C7.16675 4.66797 6.4583 4.95952 5.87475 5.54264C5.29164 6.12619 5.00008 6.83464 5.00008 7.66797C5.00008 8.5013 5.29164 9.20975 5.87475 9.7933C6.4583 10.3764 7.16675 10.668 8.00008 10.668ZM8.00008 9.46797C7.50008 9.46797 7.07519 9.29286 6.72542 8.94264C6.37519 8.59286 6.20008 8.16797 6.20008 7.66797C6.20008 7.16797 6.37519 6.74286 6.72542 6.39264C7.07519 6.04286 7.50008 5.86797 8.00008 5.86797C8.50008 5.86797 8.92519 6.04286 9.27542 6.39264C9.62519 6.74286 9.80008 7.16797 9.80008 7.66797C9.80008 8.16797 9.62519 8.59286 9.27542 8.94264C8.92519 9.29286 8.50008 9.46797 8.00008 9.46797ZM8.00008 12.668C6.37786 12.668 4.90008 12.2151 3.56675 11.3093C2.23341 10.404 1.26675 9.19019 0.666748 7.66797C1.26675 6.14575 2.23341 4.93175 3.56675 4.02597C4.90008 3.12064 6.37786 2.66797 8.00008 2.66797C9.6223 2.66797 11.1001 3.12064 12.4334 4.02597C13.7667 4.93175 14.7334 6.14575 15.3334 7.66797C14.7334 9.19019 13.7667 10.404 12.4334 11.3093C11.1001 12.2151 9.6223 12.668 8.00008 12.668ZM8.00008 11.3346C9.25564 11.3346 10.4085 11.004 11.4587 10.3426C12.5085 9.68175 13.3112 8.79019 13.8667 7.66797C13.3112 6.54575 12.5085 5.65397 11.4587 4.99264C10.4085 4.33175 9.25564 4.0013 8.00008 4.0013C6.74453 4.0013 5.59164 4.33175 4.54141 4.99264C3.49164 5.65397 2.68897 6.54575 2.13341 7.66797C2.68897 8.79019 3.49164 9.68175 4.54141 10.3426C5.59164 11.004 6.74453 11.3346 8.00008 11.3346Z" fill="#B9C5CF"/>
</g>
</svg>
