<svg width="184" height="198" viewBox="0 0 184 198" fill="none" xmlns="http://www.w3.org/2000/svg">
<rect width="184" height="198" rx="8" fill="#115EED"/>
<path d="M0 8C0 3.58172 3.58172 0 8 0H176C180.418 0 184 3.58172 184 8V64.6588C184 69.5675 179.62 73.3184 174.77 72.5637L6.76989 46.4203C2.87345 45.814 0 42.4588 0 38.5155V8Z" fill="#12DB63"/>
<mask id="mask0_1901_14247" style="mask-type:alpha" maskUnits="userSpaceOnUse" x="15" y="0" width="159" height="79">
<rect x="15" width="159" height="79" rx="8" fill="#12DB63"/>
</mask>
<g mask="url(#mask0_1901_14247)">
<circle cx="53.0002" cy="46.0671" r="21.6667" fill="url(#paint0_linear_1901_14247)"/>
<circle cx="174.767" cy="-15.0337" r="33.3667" fill="url(#paint1_linear_1901_14247)"/>
<path d="M103.506 60.5601C107.286 64.3398 111.919 67.1561 117.014 68.772C122.109 70.3878 127.518 70.7558 132.785 69.845C138.052 68.9343 143.024 66.7713 147.281 63.5384C151.538 60.3054 154.955 56.0971 157.246 51.2676C159.538 46.4381 160.635 41.1289 160.446 35.7869C160.257 30.4448 158.787 25.2264 156.161 20.5708C153.534 15.9153 149.828 11.9589 145.353 9.03479C140.878 6.11066 135.767 4.30439 130.448 3.76801L128.032 27.7275C129.512 27.8767 130.934 28.3794 132.18 29.1932C133.425 30.0069 134.456 31.108 135.187 32.4036C135.918 33.6992 136.327 35.1514 136.38 36.6381C136.433 38.1247 136.127 39.6022 135.49 40.9462C134.852 42.2902 133.901 43.4614 132.716 44.3611C131.532 45.2608 130.148 45.8627 128.682 46.1162C127.216 46.3696 125.711 46.2672 124.293 45.8175C122.875 45.3679 121.586 44.5841 120.534 43.5322L103.506 60.5601Z" fill="#856FF1"/>
<path d="M20.424 -35.9706C19.4996 -28.5304 20.3762 -20.977 22.98 -13.9463C25.5839 -6.91557 29.8388 -0.613341 35.3865 4.42984C40.9343 9.47303 47.6124 13.1095 54.8588 15.0332C62.1052 16.9569 69.7078 17.1115 77.0264 15.484C84.345 13.8564 91.1655 10.4944 96.9136 5.68084C102.662 0.867334 107.169 -5.25673 110.057 -12.1758C112.944 -19.0949 114.127 -26.6064 113.506 -34.078C112.885 -41.5496 110.477 -48.7626 106.487 -55.1098L89.2793 -44.2911C91.5367 -40.7006 92.8984 -36.6203 93.2498 -32.3937C93.6013 -28.1671 92.9321 -23.918 91.2987 -20.004C89.6653 -16.09 87.1155 -12.6257 83.8638 -9.9028C80.6122 -7.17987 76.754 -5.27802 72.6139 -4.35733C68.4739 -3.43665 64.1733 -3.52409 60.0741 -4.6123C55.975 -5.7005 52.1972 -7.75762 49.059 -10.6105C45.9207 -13.4633 43.5138 -17.0284 42.0408 -21.0055C40.5679 -24.9827 40.072 -29.2555 40.5949 -33.4643L20.424 -35.9706Z" fill="#856FF1"/>
</g>
<defs>
<linearGradient id="paint0_linear_1901_14247" x1="61.2335" y1="80.3004" x2="59.5002" y2="38.7004" gradientUnits="userSpaceOnUse">
<stop stop-color="#856FF1"/>
<stop offset="1" stop-color="#3591F8"/>
</linearGradient>
<linearGradient id="paint1_linear_1901_14247" x1="174.767" y1="-48.4004" x2="174.767" y2="18.3329" gradientUnits="userSpaceOnUse">
<stop stop-color="#76B7FF"/>
<stop offset="1" stop-color="#3591F8"/>
</linearGradient>
</defs>
</svg>
