<svg width="20" height="20" viewBox="0 0 20 20" fill="none" xmlns="http://www.w3.org/2000/svg">
<path fill-rule="evenodd" clip-rule="evenodd" d="M9.2002 6.7C9.2002 6.2 9.6002 5.9 10.0002 5.9C10.5002 5.9 10.8002 6.3 10.8002 6.7V10.9C10.8002 11.4 10.4002 11.7 10.0002 11.7C9.5002 11.7 9.2002 11.3 9.2002 10.9V6.7ZM9.2002 13.3C9.2002 12.8 9.6002 12.5 10.0002 12.5C10.5002 12.5 10.8002 12.9 10.8002 13.3C10.8002 13.7 10.4002 14.1 10.0002 14.1C9.5002 14.2 9.2002 13.8 9.2002 13.3ZM10.0002 16.7C6.3002 16.7 3.3002 13.7 3.3002 10C3.3002 6.3 6.3002 3.3 10.0002 3.3C13.7002 3.3 16.7002 6.3 16.7002 10C16.7002 13.7 13.7002 16.7 10.0002 16.7ZM10.0002 1.7C5.4002 1.7 1.7002 5.4 1.7002 10C1.7002 14.6 5.4002 18.3 10.0002 18.3C14.6002 18.3 18.3002 14.6 18.3002 10C18.3002 5.4 14.6002 1.7 10.0002 1.7Z" fill="#231F20"/>
<mask id="mask0_816_5436" style="mask-type:alpha" maskUnits="userSpaceOnUse" x="1" y="1" width="18" height="18">
<path fill-rule="evenodd" clip-rule="evenodd" d="M9.2002 6.7C9.2002 6.2 9.6002 5.9 10.0002 5.9C10.5002 5.9 10.8002 6.3 10.8002 6.7V10.9C10.8002 11.4 10.4002 11.7 10.0002 11.7C9.5002 11.7 9.2002 11.3 9.2002 10.9V6.7ZM9.2002 13.3C9.2002 12.8 9.6002 12.5 10.0002 12.5C10.5002 12.5 10.8002 12.9 10.8002 13.3C10.8002 13.7 10.4002 14.1 10.0002 14.1C9.5002 14.2 9.2002 13.8 9.2002 13.3ZM10.0002 16.7C6.3002 16.7 3.3002 13.7 3.3002 10C3.3002 6.3 6.3002 3.3 10.0002 3.3C13.7002 3.3 16.7002 6.3 16.7002 10C16.7002 13.7 13.7002 16.7 10.0002 16.7ZM10.0002 1.7C5.4002 1.7 1.7002 5.4 1.7002 10C1.7002 14.6 5.4002 18.3 10.0002 18.3C14.6002 18.3 18.3002 14.6 18.3002 10C18.3002 5.4 14.6002 1.7 10.0002 1.7Z" fill="white"/>
</mask>
<g mask="url(#mask0_816_5436)">
<path d="M20 0H0V20H20V0Z" fill="#ED5311"/>
</g>
</svg>
