<svg width="24" height="24" viewBox="0 0 24 24" fill="none" xmlns="http://www.w3.org/2000/svg">
<path fill-rule="evenodd" clip-rule="evenodd" d="M15.9995 12C15.9995 12.228 15.9225 12.455 15.7675 12.64L10.7675 18.64C10.4145 19.064 9.7835 19.122 9.3595 18.768C8.9355 18.415 8.8785 17.785 9.2315 17.36L13.7075 11.989L9.39249 6.627C9.04649 6.197 9.11449 5.567 9.54449 5.221C9.97449 4.875 10.6035 4.943 10.9505 5.373L15.7785 11.373C15.9255 11.556 15.9995 11.778 15.9995 12Z" fill="#23272F"/>
<mask id="mask0_988_6422" style="mask-type:alpha" maskUnits="userSpaceOnUse" x="9" y="5" width="7" height="14">
<path fill-rule="evenodd" clip-rule="evenodd" d="M15.9995 12C15.9995 12.228 15.9225 12.455 15.7675 12.64L10.7675 18.64C10.4145 19.064 9.7835 19.122 9.3595 18.768C8.9355 18.415 8.8785 17.785 9.2315 17.36L13.7075 11.989L9.39249 6.627C9.04649 6.197 9.11449 5.567 9.54449 5.221C9.97449 4.875 10.6035 4.943 10.9505 5.373L15.7785 11.373C15.9255 11.556 15.9995 11.778 15.9995 12Z" fill="white"/>
</mask>
<g mask="url(#mask0_988_6422)">
<rect y="24" width="24" height="24" transform="rotate(-90 0 24)" fill="#23272F"/>
</g>
</svg>
