<svg width="16" height="16" viewBox="0 0 16 16" fill="none" xmlns="http://www.w3.org/2000/svg">
<mask id="mask0_1662_20790" style="mask-type:alpha" maskUnits="userSpaceOnUse" x="0" y="0" width="16" height="16">
<rect width="16" height="16" fill="#D9D9D9"/>
</mask>
<g mask="url(#mask0_1662_20790)">
<path d="M10.6673 5.5987L4.75059 11.532C4.61725 11.6654 4.45881 11.732 4.27525 11.732C4.09214 11.732 3.93392 11.6654 3.80059 11.532C3.66725 11.3987 3.60059 11.2403 3.60059 11.0567C3.60059 10.8736 3.66725 10.7154 3.80059 10.582L9.73392 4.66536H4.66725C4.47836 4.66536 4.31992 4.60159 4.19192 4.47403C4.06436 4.34603 4.00059 4.18759 4.00059 3.9987C4.00059 3.80981 4.06436 3.65136 4.19192 3.52336C4.31992 3.39581 4.47836 3.33203 4.66725 3.33203H11.3339C11.5228 3.33203 11.681 3.39581 11.8086 3.52336C11.9366 3.65136 12.0006 3.80981 12.0006 3.9987V10.6654C12.0006 10.8543 11.9366 11.0125 11.8086 11.14C11.681 11.268 11.5228 11.332 11.3339 11.332C11.145 11.332 10.9868 11.268 10.8593 11.14C10.7313 11.0125 10.6673 10.8543 10.6673 10.6654V5.5987Z" fill="#115EED"/>
</g>
</svg>
