<svg width="20" height="20" viewBox="0 0 20 20" fill="none" xmlns="http://www.w3.org/2000/svg">
<path fill-rule="evenodd" clip-rule="evenodd" d="M9.9002 12.9C10.0002 12.9 10.2002 12.9 10.3002 13L14.2002 15.2V4.4C14.2002 4.2 14.1002 4.1 14.0002 4.1H6.0002C5.9002 4.1 5.8002 4.2 5.8002 4.4V15.1L9.4002 13C9.60019 13 9.7002 12.9 9.9002 12.9ZM5.0002 17.5C4.9002 17.5 4.7002 17.5 4.6002 17.4C4.3002 17.3 4.2002 17 4.2002 16.7V4.4C4.2002 3.4 5.0002 2.5 6.0002 2.5H14.0002C15.0002 2.5 15.8002 3.4 15.8002 4.4V16.6C15.8002 16.9 15.6002 17.2 15.4002 17.3C15.1002 17.4 14.8002 17.5 14.6002 17.3L9.9002 14.6L5.5002 17.3C5.3002 17.5 5.1002 17.5 5.0002 17.5Z" fill="#115EED"/>
<mask id="mask0_816_5474" style="mask-type:alpha" maskUnits="userSpaceOnUse" x="4" y="2" width="12" height="16">
<path fill-rule="evenodd" clip-rule="evenodd" d="M9.9002 12.9C10.0002 12.9 10.2002 12.9 10.3002 13L14.2002 15.2V4.4C14.2002 4.2 14.1002 4.1 14.0002 4.1H6.0002C5.9002 4.1 5.8002 4.2 5.8002 4.4V15.1L9.4002 13C9.60019 13 9.7002 12.9 9.9002 12.9ZM5.0002 17.5C4.9002 17.5 4.7002 17.5 4.6002 17.4C4.3002 17.3 4.2002 17 4.2002 16.7V4.4C4.2002 3.4 5.0002 2.5 6.0002 2.5H14.0002C15.0002 2.5 15.8002 3.4 15.8002 4.4V16.6C15.8002 16.9 15.6002 17.2 15.4002 17.3C15.1002 17.4 14.8002 17.5 14.6002 17.3L9.9002 14.6L5.5002 17.3C5.3002 17.5 5.1002 17.5 5.0002 17.5Z" fill="white"/>
</mask>
<g mask="url(#mask0_816_5474)">
<path d="M20 0H0V20H20V0Z" fill="#115EED"/>
</g>
</svg>
