<svg width="20" height="20" viewBox="0 0 20 20" fill="none" xmlns="http://www.w3.org/2000/svg">
<path fill-rule="evenodd" clip-rule="evenodd" d="M11.2001 10L14.8001 6.4C15.1001 6.1 15.1001 5.5 14.8001 5.2C14.5001 4.9 13.9001 4.9 13.6001 5.2L10.0001 8.8L6.4001 5.2C6.1001 4.9 5.5001 4.9 5.2001 5.2C4.9001 5.5 4.9001 6.1 5.2001 6.4L8.8001 10L5.2001 13.6C4.9001 13.9 4.9001 14.5 5.2001 14.8C5.4001 14.9 5.6001 15 5.8001 15C6.0001 15 6.2001 14.9 6.4001 14.8L10.0001 11.2L13.6001 14.8C13.8001 15 14.0001 15 14.2001 15C14.4001 15 14.6001 14.9 14.8001 14.8C15.1001 14.5 15.1001 13.9 14.8001 13.6L11.2001 10Z" fill="#23272F"/>
<mask id="mask0_816_5450" style="mask-type:alpha" maskUnits="userSpaceOnUse" x="4" y="4" width="12" height="11">
<path fill-rule="evenodd" clip-rule="evenodd" d="M11.2001 10L14.8001 6.4C15.1001 6.1 15.1001 5.5 14.8001 5.2C14.5001 4.9 13.9001 4.9 13.6001 5.2L10.0001 8.8L6.4001 5.2C6.1001 4.9 5.5001 4.9 5.2001 5.2C4.9001 5.5 4.9001 6.1 5.2001 6.4L8.8001 10L5.2001 13.6C4.9001 13.9 4.9001 14.5 5.2001 14.8C5.4001 14.9 5.6001 15 5.8001 15C6.0001 15 6.2001 14.9 6.4001 14.8L10.0001 11.2L13.6001 14.8C13.8001 15 14.0001 15 14.2001 15C14.4001 15 14.6001 14.9 14.8001 14.8C15.1001 14.5 15.1001 13.9 14.8001 13.6L11.2001 10Z" fill="white"/>
</mask>
<g mask="url(#mask0_816_5450)">
<path d="M20 0H0V20H20V0Z" fill="#23272F"/>
</g>
</svg>
