<svg width="48" height="48" viewBox="0 0 48 48" fill="none" xmlns="http://www.w3.org/2000/svg">
<rect width="48" height="48" rx="2" fill="#D2F9CC"/>
<path fill-rule="evenodd" clip-rule="evenodd" d="M30 22C30 21.449 29.552 21 29 21C28.448 21 28 21.449 28 22C28 22.551 28.448 23 29 23C29.552 23 30 22.551 30 22ZM32 22C32 23.654 30.654 25 29 25C27.346 25 26 23.654 26 22C26 20.346 27.346 19 29 19C30.654 19 32 20.346 32 22ZM23 19C23 17.897 22.103 17 21 17C19.897 17 19 17.897 19 19C19 20.103 19.897 21 21 21C22.103 21 23 20.103 23 19ZM25 19C25 21.206 23.206 23 21 23C18.794 23 17 21.206 17 19C17 16.794 18.794 15 21 15C23.206 15 25 16.794 25 19ZM25.94 27.046C26.809 26.374 27.879 26 29 26C31.757 26 34 28.243 34 31C34 31.552 33.553 32 33 32C32.447 32 32 31.552 32 31C32 29.346 30.654 28 29 28C28.317 28 27.668 28.234 27.144 28.649C27.688 29.645 28 30.787 28 32C28 32.552 27.553 33 27 33C26.447 33 26 32.552 26 32C26 29.243 23.757 27 21 27C18.243 27 16 29.243 16 32C16 32.552 15.553 33 15 33C14.447 33 14 32.552 14 32C14 28.14 17.141 25 21 25C22.927 25 24.673 25.783 25.94 27.046Z" fill="#1EE100"/>
<mask id="mask0_456_2538" style="mask-type:alpha" maskUnits="userSpaceOnUse" x="14" y="15" width="20" height="18">
<path fill-rule="evenodd" clip-rule="evenodd" d="M30 22C30 21.449 29.552 21 29 21C28.448 21 28 21.449 28 22C28 22.551 28.448 23 29 23C29.552 23 30 22.551 30 22ZM32 22C32 23.654 30.654 25 29 25C27.346 25 26 23.654 26 22C26 20.346 27.346 19 29 19C30.654 19 32 20.346 32 22ZM23 19C23 17.897 22.103 17 21 17C19.897 17 19 17.897 19 19C19 20.103 19.897 21 21 21C22.103 21 23 20.103 23 19ZM25 19C25 21.206 23.206 23 21 23C18.794 23 17 21.206 17 19C17 16.794 18.794 15 21 15C23.206 15 25 16.794 25 19ZM25.94 27.046C26.809 26.374 27.879 26 29 26C31.757 26 34 28.243 34 31C34 31.552 33.553 32 33 32C32.447 32 32 31.552 32 31C32 29.346 30.654 28 29 28C28.317 28 27.668 28.234 27.144 28.649C27.688 29.645 28 30.787 28 32C28 32.552 27.553 33 27 33C26.447 33 26 32.552 26 32C26 29.243 23.757 27 21 27C18.243 27 16 29.243 16 32C16 32.552 15.553 33 15 33C14.447 33 14 32.552 14 32C14 28.14 17.141 25 21 25C22.927 25 24.673 25.783 25.94 27.046Z" fill="white"/>
</mask>
<g mask="url(#mask0_456_2538)">
<rect x="12" y="12" width="24" height="24" fill="#1EE100"/>
</g>
</svg>
