<svg width="48" height="48" viewBox="0 0 48 48" fill="none" xmlns="http://www.w3.org/2000/svg">
<rect width="48" height="48" rx="4" fill="#C5FFD5"/>
<path fill-rule="evenodd" clip-rule="evenodd" d="M17 23C17 19.691 19.691 17 23 17C26.309 17 29 19.691 29 23C29 26.309 26.309 29 23 29C19.691 29 17 26.309 17 23ZM32.707 31.293L29.312 27.897C30.365 26.543 31 24.846 31 23C31 18.589 27.411 15 23 15C18.589 15 15 18.589 15 23C15 27.411 18.589 31 23 31C24.846 31 26.543 30.365 27.897 29.312L31.293 32.707C31.488 32.902 31.744 33 32 33C32.256 33 32.512 32.902 32.707 32.707C33.098 32.316 33.098 31.684 32.707 31.293Z" fill="#115EED"/>
<mask id="mask0_650_5066" style="mask-type:alpha" maskUnits="userSpaceOnUse" x="15" y="15" width="18" height="18">
<path fill-rule="evenodd" clip-rule="evenodd" d="M17 23C17 19.691 19.691 17 23 17C26.309 17 29 19.691 29 23C29 26.309 26.309 29 23 29C19.691 29 17 26.309 17 23ZM32.707 31.293L29.312 27.897C30.365 26.543 31 24.846 31 23C31 18.589 27.411 15 23 15C18.589 15 15 18.589 15 23C15 27.411 18.589 31 23 31C24.846 31 26.543 30.365 27.897 29.312L31.293 32.707C31.488 32.902 31.744 33 32 33C32.256 33 32.512 32.902 32.707 32.707C33.098 32.316 33.098 31.684 32.707 31.293Z" fill="white"/>
</mask>
<g mask="url(#mask0_650_5066)">
<rect x="12" y="12" width="24" height="24" fill="#115EED"/>
</g>
</svg>
