<svg width="20" height="20" viewBox="0 0 20 20" fill="none" xmlns="http://www.w3.org/2000/svg">
<path fill-rule="evenodd" clip-rule="evenodd" d="M9.1665 6.66699C9.1665 6.20699 9.53984 5.83366 9.99984 5.83366C10.4598 5.83366 10.8332 6.20699 10.8332 6.66699V10.8337C10.8332 11.2937 10.4598 11.667 9.99984 11.667C9.53984 11.667 9.1665 11.2937 9.1665 10.8337V6.66699ZM9.1665 13.3337C9.1665 12.8737 9.53984 12.5003 9.99984 12.5003C10.4598 12.5003 10.8332 12.8737 10.8332 13.3337C10.8332 13.7937 10.4598 14.167 9.99984 14.167C9.53984 14.167 9.1665 13.7937 9.1665 13.3337ZM9.99975 16.667C6.32392 16.667 3.33309 13.6762 3.33309 10.0003C3.33309 6.32449 6.32392 3.33366 9.99975 3.33366C13.6756 3.33366 16.6664 6.32449 16.6664 10.0003C16.6664 13.6762 13.6756 16.667 9.99975 16.667ZM9.99984 1.66699C5.39734 1.66699 1.6665 5.39783 1.6665 10.0003C1.6665 14.6028 5.39734 18.3337 9.99984 18.3337C14.6023 18.3337 18.3332 14.6028 18.3332 10.0003C18.3332 5.39783 14.6023 1.66699 9.99984 1.66699Z" fill="#23272F"/>
<mask id="mask0_809_12080" style="mask-type:alpha" maskUnits="userSpaceOnUse" x="1" y="1" width="18" height="18">
<path fill-rule="evenodd" clip-rule="evenodd" d="M9.1665 6.66699C9.1665 6.20699 9.53984 5.83366 9.99984 5.83366C10.4598 5.83366 10.8332 6.20699 10.8332 6.66699V10.8337C10.8332 11.2937 10.4598 11.667 9.99984 11.667C9.53984 11.667 9.1665 11.2937 9.1665 10.8337V6.66699ZM9.1665 13.3337C9.1665 12.8737 9.53984 12.5003 9.99984 12.5003C10.4598 12.5003 10.8332 12.8737 10.8332 13.3337C10.8332 13.7937 10.4598 14.167 9.99984 14.167C9.53984 14.167 9.1665 13.7937 9.1665 13.3337ZM9.99975 16.667C6.32392 16.667 3.33309 13.6762 3.33309 10.0003C3.33309 6.32449 6.32392 3.33366 9.99975 3.33366C13.6756 3.33366 16.6664 6.32449 16.6664 10.0003C16.6664 13.6762 13.6756 16.667 9.99975 16.667ZM9.99984 1.66699C5.39734 1.66699 1.6665 5.39783 1.6665 10.0003C1.6665 14.6028 5.39734 18.3337 9.99984 18.3337C14.6023 18.3337 18.3332 14.6028 18.3332 10.0003C18.3332 5.39783 14.6023 1.66699 9.99984 1.66699Z" fill="white"/>
</mask>
<g mask="url(#mask0_809_12080)">
<rect width="20" height="20" fill="#ED4611"/>
</g>
</svg>
