<svg width="24" height="24" viewBox="0 0 24 24" fill="none" xmlns="http://www.w3.org/2000/svg">
<path fill-rule="evenodd" clip-rule="evenodd" d="M12.0002 13.5C11.2002 13.5 10.5002 12.8 10.5002 12L12.0002 13.5C12.1002 13.5 12.1002 13.5 12.0002 13.5ZM4.7002 3.3C4.3002 2.9 3.7002 2.9 3.3002 3.3C2.9002 3.7 2.9002 4.3 3.3002 4.7L8.9002 10.3C8.60019 10.8 8.5002 11.4 8.5002 12C8.5002 13.9 10.1002 15.5 12.0002 15.5C12.6002 15.5 13.2002 15.4 13.7002 15.1L19.3002 20.7C19.5002 20.9 19.8002 21 20.0002 21C20.2002 21 20.5002 20.9 20.7002 20.7C21.1002 20.3 21.1002 19.7 20.7002 19.3L4.7002 3.3ZM12.2002 17C7.9002 17.1 5.1002 13.4 4.2002 12C4.7002 11.3 5.4002 10.2 6.5002 9.3L5.0002 7.9C3.5002 9.3 2.5002 10.8 2.1002 11.5C1.9002 11.8 1.9002 12.2 2.1002 12.5C2.7002 13.6 6.1002 19 12.0002 19C12.1002 19 12.2002 19 12.2002 19C13.4002 19 14.5002 18.7 15.4002 18.3L13.8002 16.7C13.4002 16.9 12.8002 17 12.2002 17ZM11.7002 5C17.7002 4.8 21.2002 10.4 21.8002 11.5C22.0002 11.8 22.0002 12.2 21.8002 12.5C21.4002 13.2 20.4002 14.7 18.9002 16.1L17.5002 14.7C18.6002 13.7 19.3002 12.7 19.8002 12C18.9002 10.6 16.0002 6.9 11.8002 7C11.2002 7 10.6002 7.1 10.1002 7.3L8.5002 5.7C9.5002 5.3 10.5002 5 11.7002 5Z" fill="#231F20"/>
<mask id="mask0_816_5422" style="mask-type:alpha" maskUnits="userSpaceOnUse" x="1" y="3" width="21" height="18">
<path fill-rule="evenodd" clip-rule="evenodd" d="M12.0002 13.5C11.2002 13.5 10.5002 12.8 10.5002 12L12.0002 13.5C12.1002 13.5 12.1002 13.5 12.0002 13.5ZM4.7002 3.3C4.3002 2.9 3.7002 2.9 3.3002 3.3C2.9002 3.7 2.9002 4.3 3.3002 4.7L8.9002 10.3C8.60019 10.8 8.5002 11.4 8.5002 12C8.5002 13.9 10.1002 15.5 12.0002 15.5C12.6002 15.5 13.2002 15.4 13.7002 15.1L19.3002 20.7C19.5002 20.9 19.8002 21 20.0002 21C20.2002 21 20.5002 20.9 20.7002 20.7C21.1002 20.3 21.1002 19.7 20.7002 19.3L4.7002 3.3ZM12.2002 17C7.9002 17.1 5.1002 13.4 4.2002 12C4.7002 11.3 5.4002 10.2 6.5002 9.3L5.0002 7.9C3.5002 9.3 2.5002 10.8 2.1002 11.5C1.9002 11.8 1.9002 12.2 2.1002 12.5C2.7002 13.6 6.1002 19 12.0002 19C12.1002 19 12.2002 19 12.2002 19C13.4002 19 14.5002 18.7 15.4002 18.3L13.8002 16.7C13.4002 16.9 12.8002 17 12.2002 17ZM11.7002 5C17.7002 4.8 21.2002 10.4 21.8002 11.5C22.0002 11.8 22.0002 12.2 21.8002 12.5C21.4002 13.2 20.4002 14.7 18.9002 16.1L17.5002 14.7C18.6002 13.7 19.3002 12.7 19.8002 12C18.9002 10.6 16.0002 6.9 11.8002 7C11.2002 7 10.6002 7.1 10.1002 7.3L8.5002 5.7C9.5002 5.3 10.5002 5 11.7002 5Z" fill="white"/>
</mask>
<g mask="url(#mask0_816_5422)">
<path d="M24 0H0V24H24V0Z" fill="#0D1C2E"/>
</g>
</svg>
