<svg width="16" height="16" viewBox="0 0 16 16" fill="none" xmlns="http://www.w3.org/2000/svg">
<path fill-rule="evenodd" clip-rule="evenodd" d="M11.3333 2.33333C11.3333 2.14933 11.1833 2 11 2H9.33333C7.492 2 6 3.34333 6 5V6.8H4.33333C4.14933 6.8 4 6.94933 4 7.13333V8.86667C4 9.05067 4.14933 9.2 4.33333 9.2H6V13.6667C6 13.8507 6.14933 14 6.33333 14H8.33333C8.51667 14 8.66667 13.8507 8.66667 13.6667V9.2H10.4127C10.5627 9.2 10.694 9.1 10.7347 8.956L11.2153 7.22267C11.2747 7.01067 11.1147 6.8 10.8947 6.8H8.66667V5C8.66667 4.66867 8.96467 4.4 9.33333 4.4H11C11.1833 4.4 11.3333 4.25067 11.3333 4.06667V2.33333Z" fill="#535861"/>
<mask id="mask0_2208_3891" style="mask-type:alpha" maskUnits="userSpaceOnUse" x="4" y="2" width="8" height="12">
<path fill-rule="evenodd" clip-rule="evenodd" d="M11.3333 2.33333C11.3333 2.14933 11.1833 2 11 2H9.33333C7.492 2 6 3.34333 6 5V6.8H4.33333C4.14933 6.8 4 6.94933 4 7.13333V8.86667C4 9.05067 4.14933 9.2 4.33333 9.2H6V13.6667C6 13.8507 6.14933 14 6.33333 14H8.33333C8.51667 14 8.66667 13.8507 8.66667 13.6667V9.2H10.4127C10.5627 9.2 10.694 9.1 10.7347 8.956L11.2153 7.22267C11.2747 7.01067 11.1147 6.8 10.8947 6.8H8.66667V5C8.66667 4.66867 8.96467 4.4 9.33333 4.4H11C11.1833 4.4 11.3333 4.25067 11.3333 4.06667V2.33333Z" fill="white"/>
</mask>
<g mask="url(#mask0_2208_3891)">
<rect width="16" height="16" fill="#535861"/>
</g>
</svg>
