<svg width="56" height="56" viewBox="0 0 56 56" fill="none" xmlns="http://www.w3.org/2000/svg">
<circle cx="28" cy="28" r="28" fill="#D2F9CC"/>
<path fill-rule="evenodd" clip-rule="evenodd" d="M26 21C27.103 21 28 21.897 28 23C28 24.103 27.103 25 26 25C24.897 25 24 24.103 24 23C24 21.897 24.897 21 26 21ZM26 27C28.206 27 30 25.206 30 23C30 20.794 28.206 19 26 19C23.794 19 22 20.794 22 23C22 25.206 23.794 27 26 27ZM26 29C22.141 29 19 32.14 19 36C19 36.552 19.447 37 20 37C20.553 37 21 36.552 21 36C21 33.243 23.243 31 26 31C28.757 31 31 33.243 31 36C31 36.552 31.447 37 32 37C32.553 37 33 36.552 33 36C33 32.14 29.859 29 26 29ZM36 22H37C37.55 22 38 22.45 38 23C38 23.55 37.55 24 37 24H36V25C36 25.55 35.55 26 35 26C34.45 26 34 25.55 34 25V24H33C32.45 24 32 23.55 32 23C32 22.45 32.45 22 33 22H34V21C34 20.45 34.45 20 35 20C35.55 20 36 20.45 36 21V22Z" fill="#231F20"/>
<mask id="mask0_299_2136" style="mask-type:alpha" maskUnits="userSpaceOnUse" x="19" y="19" width="19" height="18">
<path fill-rule="evenodd" clip-rule="evenodd" d="M26 21C27.103 21 28 21.897 28 23C28 24.103 27.103 25 26 25C24.897 25 24 24.103 24 23C24 21.897 24.897 21 26 21ZM26 27C28.206 27 30 25.206 30 23C30 20.794 28.206 19 26 19C23.794 19 22 20.794 22 23C22 25.206 23.794 27 26 27ZM26 29C22.141 29 19 32.14 19 36C19 36.552 19.447 37 20 37C20.553 37 21 36.552 21 36C21 33.243 23.243 31 26 31C28.757 31 31 33.243 31 36C31 36.552 31.447 37 32 37C32.553 37 33 36.552 33 36C33 32.14 29.859 29 26 29ZM36 22H37C37.55 22 38 22.45 38 23C38 23.55 37.55 24 37 24H36V25C36 25.55 35.55 26 35 26C34.45 26 34 25.55 34 25V24H33C32.45 24 32 23.55 32 23C32 22.45 32.45 22 33 22H34V21C34 20.45 34.45 20 35 20C35.55 20 36 20.45 36 21V22Z" fill="white"/>
</mask>
<g mask="url(#mask0_299_2136)">
<rect x="16" y="16" width="24" height="24" fill="#26DD0A"/>
</g>
</svg>
