<svg width="20" height="20" viewBox="0 0 20 20" fill="none" xmlns="http://www.w3.org/2000/svg">
<mask id="mask0_1662_19527" style="mask-type:alpha" maskUnits="userSpaceOnUse" x="0" y="0" width="20" height="20">
<rect width="20" height="20" fill="#D9D9D9"/>
</mask>
<g mask="url(#mask0_1662_19527)">
<path d="M0.833496 16.6673V14.334C0.833496 13.8618 0.955163 13.4276 1.1985 13.0315C1.44127 12.6359 1.76405 12.334 2.16683 12.1257C3.02794 11.6951 3.90294 11.372 4.79183 11.1565C5.68072 10.9415 6.5835 10.834 7.50016 10.834C8.41683 10.834 9.31961 10.9415 10.2085 11.1565C11.0974 11.372 11.9724 11.6951 12.8335 12.1257C13.2363 12.334 13.5591 12.6359 13.8018 13.0315C14.0452 13.4276 14.1668 13.8618 14.1668 14.334V16.6673H0.833496ZM15.8335 16.6673V14.1673C15.8335 13.5562 15.6635 12.9693 15.3235 12.4065C14.9829 11.8443 14.5002 11.3618 13.8752 10.959C14.5835 11.0423 15.2502 11.1845 15.8752 11.3857C16.5002 11.5873 17.0835 11.834 17.6252 12.1257C18.1252 12.4034 18.5071 12.7123 18.771 13.0523C19.0349 13.3929 19.1668 13.7645 19.1668 14.1673V16.6673H15.8335ZM7.50016 10.0007C6.5835 10.0007 5.79877 9.67426 5.146 9.02148C4.49322 8.36871 4.16683 7.58398 4.16683 6.66732C4.16683 5.75065 4.49322 4.96593 5.146 4.31315C5.79877 3.66037 6.5835 3.33398 7.50016 3.33398C8.41683 3.33398 9.20155 3.66037 9.85433 4.31315C10.5071 4.96593 10.8335 5.75065 10.8335 6.66732C10.8335 7.58398 10.5071 8.36871 9.85433 9.02148C9.20155 9.67426 8.41683 10.0007 7.50016 10.0007ZM15.8335 6.66732C15.8335 7.58398 15.5071 8.36871 14.8543 9.02148C14.2016 9.67426 13.4168 10.0007 12.5002 10.0007C12.3474 10.0007 12.1529 9.98343 11.9168 9.94898C11.6807 9.91398 11.4863 9.87565 11.3335 9.83398C11.7085 9.38954 11.9966 8.89648 12.1977 8.35482C12.3993 7.81315 12.5002 7.25065 12.5002 6.66732C12.5002 6.08398 12.3993 5.52148 12.1977 4.97982C11.9966 4.43815 11.7085 3.9451 11.3335 3.50065C11.5279 3.43121 11.7224 3.38593 11.9168 3.36482C12.1113 3.34426 12.3057 3.33398 12.5002 3.33398C13.4168 3.33398 14.2016 3.66037 14.8543 4.31315C15.5071 4.96593 15.8335 5.75065 15.8335 6.66732ZM2.50016 15.0007H12.5002V14.334C12.5002 14.1812 12.4621 14.0423 12.386 13.9173C12.3093 13.7923 12.2085 13.6951 12.0835 13.6257C11.3335 13.2507 10.5766 12.9693 9.81266 12.7815C9.04877 12.5943 8.27794 12.5007 7.50016 12.5007C6.72239 12.5007 5.95155 12.5943 5.18766 12.7815C4.42377 12.9693 3.66683 13.2507 2.91683 13.6257C2.79183 13.6951 2.69127 13.7923 2.61516 13.9173C2.5385 14.0423 2.50016 14.1812 2.50016 14.334V15.0007ZM7.50016 8.33398C7.9585 8.33398 8.351 8.17065 8.67766 7.84398C9.00377 7.51787 9.16683 7.12565 9.16683 6.66732C9.16683 6.20898 9.00377 5.81676 8.67766 5.49065C8.351 5.16398 7.9585 5.00065 7.50016 5.00065C7.04183 5.00065 6.64961 5.16398 6.3235 5.49065C5.99683 5.81676 5.8335 6.20898 5.8335 6.66732C5.8335 7.12565 5.99683 7.51787 6.3235 7.84398C6.64961 8.17065 7.04183 8.33398 7.50016 8.33398Z" fill="#B9C5CF"/>
</g>
</svg>
