<svg width="32" height="32" viewBox="0 0 32 32" fill="none" xmlns="http://www.w3.org/2000/svg">
<rect width="32" height="32" rx="4" fill="#E6EBF4"/>
<path fill-rule="evenodd" clip-rule="evenodd" d="M10.0004 11.5C10.0004 10.672 10.6724 10 11.5004 10C12.3284 10 13.0004 10.672 13.0004 11.5C13.0004 12.328 12.3284 13 11.5004 13C10.6724 13 10.0004 12.328 10.0004 11.5ZM18.1005 13.6003C15.9465 13.6003 14.1999 15.3363 14.1999 17.4763V21.3996C14.1999 21.7309 14.4692 22.0003 14.8005 22.0003H16.1999C16.5312 22.0003 16.8005 21.7309 16.8005 21.3996V17.4763C16.8005 16.7189 17.4565 16.1136 18.2352 16.1916C18.9112 16.2589 19.3999 16.8769 19.3999 17.5563V21.3996C19.3999 21.7309 19.6692 22.0003 20.0005 22.0003H21.3999C21.7312 22.0003 22.0005 21.7309 22.0005 21.3996V17.4763C22.0005 15.3363 20.2539 13.6003 18.1005 13.6003ZM12.4 14.1999H10.6007C10.2693 14.1999 10 14.4685 10 14.7999V21.3999C10 21.7312 10.2693 21.9999 10.6007 21.9999H12.4C12.7313 21.9999 13 21.7312 13 21.3999V14.7999C13 14.4685 12.7313 14.1999 12.4 14.1999Z" fill="#535861"/>
<mask id="mask0_1977_9824" style="mask-type:alpha" maskUnits="userSpaceOnUse" x="10" y="10" width="12" height="13">
<path fill-rule="evenodd" clip-rule="evenodd" d="M10.0004 11.5C10.0004 10.672 10.6724 10 11.5004 10C12.3284 10 13.0004 10.672 13.0004 11.5C13.0004 12.328 12.3284 13 11.5004 13C10.6724 13 10.0004 12.328 10.0004 11.5ZM18.1005 13.6003C15.9465 13.6003 14.1999 15.3363 14.1999 17.4763V21.3996C14.1999 21.7309 14.4692 22.0003 14.8005 22.0003H16.1999C16.5312 22.0003 16.8005 21.7309 16.8005 21.3996V17.4763C16.8005 16.7189 17.4565 16.1136 18.2352 16.1916C18.9112 16.2589 19.3999 16.8769 19.3999 17.5563V21.3996C19.3999 21.7309 19.6692 22.0003 20.0005 22.0003H21.3999C21.7312 22.0003 22.0005 21.7309 22.0005 21.3996V17.4763C22.0005 15.3363 20.2539 13.6003 18.1005 13.6003ZM12.4 14.1999H10.6007C10.2693 14.1999 10 14.4685 10 14.7999V21.3999C10 21.7312 10.2693 21.9999 10.6007 21.9999H12.4C12.7313 21.9999 13 21.7312 13 21.3999V14.7999C13 14.4685 12.7313 14.1999 12.4 14.1999Z" fill="white"/>
</mask>
<g mask="url(#mask0_1977_9824)">
<rect x="8" y="8" width="16" height="16" fill="#535861"/>
</g>
</svg>
