<svg width="16" height="16" viewBox="0 0 16 16" fill="none" xmlns="http://www.w3.org/2000/svg">
<path d="M3.77749 5.36328H0.55957V15.625H3.77749V5.36328Z" fill="#115EED"/>
<path d="M12.4823 5.14271C12.3636 5.12788 12.2376 5.12046 12.1116 5.11305C10.3098 5.0389 9.29403 6.1066 8.93813 6.5663C8.84174 6.69235 8.79725 6.76649 8.79725 6.76649V5.3948H5.72021V15.6565H8.79725H8.93813C8.93813 14.6111 8.93813 13.573 8.93813 12.5276C8.93813 11.9641 8.93813 11.4006 8.93813 10.8371C8.93813 10.1401 8.88623 9.39866 9.23471 8.76101C9.53129 8.22716 10.0651 7.96023 10.6657 7.96023C12.4452 7.96023 12.4823 9.56919 12.4823 9.71748C12.4823 9.7249 12.4823 9.73231 12.4823 9.73231V15.701H15.7002V9.00569C15.7002 6.71459 14.5361 5.36514 12.4823 5.14271Z" fill="#115EED"/>
<path d="M2.16851 4.03771C3.20044 4.03771 4.03698 3.20117 4.03698 2.16925C4.03698 1.13732 3.20044 0.300781 2.16851 0.300781C1.13659 0.300781 0.300049 1.13732 0.300049 2.16925C0.300049 3.20117 1.13659 4.03771 2.16851 4.03771Z" fill="#115EED"/>
</svg>
