<svg width="24" height="24" viewBox="0 0 24 24" fill="none" xmlns="http://www.w3.org/2000/svg">
<circle cx="12" cy="12" r="12" fill="#5761D7"/>
<g clip-path="url(#clip0_660_9539)">
<path d="M12.2163 11.168C11.7752 10.7272 11.1771 10.4795 10.5535 10.4795C9.92988 10.4795 9.33179 10.7272 8.89074 11.168L7.22743 12.8308C6.78636 13.2719 6.53857 13.8701 6.53857 14.4938C6.53857 15.1176 6.78636 15.7158 7.22743 16.1569C7.66849 16.5979 8.26671 16.8457 8.89047 16.8457C9.51423 16.8457 10.1124 16.5979 10.5535 16.1569L11.3849 15.3255" stroke="white" stroke-width="2" stroke-linecap="round" stroke-linejoin="round"/>
<path d="M10.5537 12.831C10.9948 13.2719 11.5929 13.5196 12.2165 13.5196C12.8401 13.5196 13.4382 13.2719 13.8792 12.831L15.5426 11.1683C15.9836 10.7272 16.2314 10.129 16.2314 9.50521C16.2314 8.88145 15.9836 8.28324 15.5426 7.84217C15.1015 7.40111 14.5033 7.15332 13.8795 7.15332C13.2558 7.15332 12.6575 7.40111 12.2165 7.84217L11.3851 8.67356" stroke="white" stroke-width="2" stroke-linecap="round" stroke-linejoin="round"/>
</g>
<defs>
<clipPath id="clip0_660_9539">
<rect width="12.9231" height="12.9231" fill="white" transform="translate(4.92334 5.53809)"/>
</clipPath>
</defs>
</svg>
