<svg width="24" height="24" viewBox="0 0 24 24" fill="none" xmlns="http://www.w3.org/2000/svg">
<path fill-rule="evenodd" clip-rule="evenodd" d="M14 7C14 5.9 13.1 5 12 5C10.9 5 10 5.9 10 7C10 8.1 10.9 9 12 9C13.1 9 14 8.1 14 7ZM16 7C16 9.2 14.2 11 12 11C9.8 11 8 9.2 8 7C8 4.8 9.8 3 12 3C14.2 3 16 4.8 16 7ZM5 20C5 16.1 8.1 13 12 13C15.9 13 19 16.1 19 20C19 20.6 18.6 21 18 21C17.4 21 17 20.6 17 20C17 17.2 14.8 15 12 15C9.2 15 7 17.2 7 20C7 20.6 6.6 21 6 21C5.4 21 5 20.6 5 20Z" fill="#0055FF"/>
<mask id="mask0_816_5378" style="mask-type:alpha" maskUnits="userSpaceOnUse" x="5" y="3" width="14" height="18">
<path fill-rule="evenodd" clip-rule="evenodd" d="M14 7C14 5.9 13.1 5 12 5C10.9 5 10 5.9 10 7C10 8.1 10.9 9 12 9C13.1 9 14 8.1 14 7ZM16 7C16 9.2 14.2 11 12 11C9.8 11 8 9.2 8 7C8 4.8 9.8 3 12 3C14.2 3 16 4.8 16 7ZM5 20C5 16.1 8.1 13 12 13C15.9 13 19 16.1 19 20C19 20.6 18.6 21 18 21C17.4 21 17 20.6 17 20C17 17.2 14.8 15 12 15C9.2 15 7 17.2 7 20C7 20.6 6.6 21 6 21C5.4 21 5 20.6 5 20Z" fill="white"/>
</mask>
<g mask="url(#mask0_816_5378)">
<path d="M24 0H0V24H24V0Z" fill="#0055FF"/>
</g>
</svg>
