<svg width="24" height="24" viewBox="0 0 24 24" fill="none" xmlns="http://www.w3.org/2000/svg">
<path fill-rule="evenodd" clip-rule="evenodd" d="M12 11C11.2 11 10.5 10.3 10.5 9.5C10.5 8.7 11.2 8 12 8C12.8 8 13.5 8.7 13.5 9.5C13.5 10.3 12.8 11 12 11ZM12 6C10.1 6 8.5 7.6 8.5 9.5C8.5 11.4 10.1 13 12 13C13.9 13 15.5 11.4 15.5 9.5C15.5 7.6 13.9 6 12 6ZM12 19.6C10.3 18 6 13.6 6 9.9C6 6.7 8.7 4 12 4C15.3 4 18 6.7 18 9.9C18 13.6 13.7 18.1 12 19.6ZM12 2C7.6 2 4 5.6 4 9.9C4 15.4 11 21.5 11.3 21.7C11.5 21.9 11.7 21.9 12 21.9C12.3 21.9 12.5 21.8 12.7 21.7C13 21.5 20 15.4 20 9.9C20 5.6 16.4 2 12 2Z" fill="#535861"/>
<mask id="mask0_816_5444" style="mask-type:alpha" maskUnits="userSpaceOnUse" x="4" y="2" width="16" height="20">
<path fill-rule="evenodd" clip-rule="evenodd" d="M12 11C11.2 11 10.5 10.3 10.5 9.5C10.5 8.7 11.2 8 12 8C12.8 8 13.5 8.7 13.5 9.5C13.5 10.3 12.8 11 12 11ZM12 6C10.1 6 8.5 7.6 8.5 9.5C8.5 11.4 10.1 13 12 13C13.9 13 15.5 11.4 15.5 9.5C15.5 7.6 13.9 6 12 6ZM12 19.6C10.3 18 6 13.6 6 9.9C6 6.7 8.7 4 12 4C15.3 4 18 6.7 18 9.9C18 13.6 13.7 18.1 12 19.6ZM12 2C7.6 2 4 5.6 4 9.9C4 15.4 11 21.5 11.3 21.7C11.5 21.9 11.7 21.9 12 21.9C12.3 21.9 12.5 21.8 12.7 21.7C13 21.5 20 15.4 20 9.9C20 5.6 16.4 2 12 2Z" fill="white"/>
</mask>
<g mask="url(#mask0_816_5444)">
<path d="M24 0H0V24H24V0Z" fill="#535861"/>
</g>
</svg>
