<svg width="24" height="24" viewBox="0 0 24 24" fill="none" xmlns="http://www.w3.org/2000/svg">
<path fill-rule="evenodd" clip-rule="evenodd" d="M12 8C11.15 8 10.5 8.65 10.5 9.5C10.5 10.35 11.15 11 12 11C12.85 11 13.5 10.35 13.5 9.5C13.5 8.65 12.85 8 12 8ZM12 13C10.05 13 8.5 11.45 8.5 9.5C8.5 7.55 10.05 6 12 6C13.95 6 15.5 7.55 15.5 9.5C15.5 11.45 13.95 13 12 13ZM12 2C7.6 2 4 5.55 4 9.9C4 15.4 11.05 21.5 11.35 21.75C11.55 21.9 11.75 22 12 22C12.25 22 12.45 21.9 12.65 21.75C12.95 21.5 20 15.4 20 9.9C20 5.55 16.4 2 12 2Z" fill="#0059FF"/>
<mask id="mask0_816_5462" style="mask-type:alpha" maskUnits="userSpaceOnUse" x="4" y="2" width="16" height="20">
<path fill-rule="evenodd" clip-rule="evenodd" d="M12 8C11.15 8 10.5 8.65 10.5 9.5C10.5 10.35 11.15 11 12 11C12.85 11 13.5 10.35 13.5 9.5C13.5 8.65 12.85 8 12 8ZM12 13C10.05 13 8.5 11.45 8.5 9.5C8.5 7.55 10.05 6 12 6C13.95 6 15.5 7.55 15.5 9.5C15.5 11.45 13.95 13 12 13ZM12 2C7.6 2 4 5.55 4 9.9C4 15.4 11.05 21.5 11.35 21.75C11.55 21.9 11.75 22 12 22C12.25 22 12.45 21.9 12.65 21.75C12.95 21.5 20 15.4 20 9.9C20 5.55 16.4 2 12 2Z" fill="white"/>
</mask>
<g mask="url(#mask0_816_5462)">
<path d="M24 0H0V24H24V0Z" fill="#115EED"/>
</g>
</svg>
