<svg width="24" height="24" viewBox="0 0 24 24" fill="none" xmlns="http://www.w3.org/2000/svg">
<path fill-rule="evenodd" clip-rule="evenodd" d="M5 11C5 7.7 7.7 5 11 5C14.3 5 17 7.7 17 11C17 14.3 14.3 17 11 17C7.7 17 5 14.3 5 11ZM20.7 19.3L17.3 15.9C18.4 14.5 19 12.8 19 11C19 6.6 15.4 3 11 3C6.6 3 3 6.6 3 11C3 15.4 6.6 19 11 19C12.8 19 14.5 18.4 15.9 17.3L19.3 20.7C19.5 20.9 19.8 21 20 21C20.2 21 20.5 20.9 20.7 20.7C21.1 20.3 21.1 19.7 20.7 19.3Z" fill="#115EED"/>
<mask id="mask0_816_5338" style="mask-type:alpha" maskUnits="userSpaceOnUse" x="3" y="3" width="18" height="18">
<path fill-rule="evenodd" clip-rule="evenodd" d="M5 11C5 7.7 7.7 5 11 5C14.3 5 17 7.7 17 11C17 14.3 14.3 17 11 17C7.7 17 5 14.3 5 11ZM20.7 19.3L17.3 15.9C18.4 14.5 19 12.8 19 11C19 6.6 15.4 3 11 3C6.6 3 3 6.6 3 11C3 15.4 6.6 19 11 19C12.8 19 14.5 18.4 15.9 17.3L19.3 20.7C19.5 20.9 19.8 21 20 21C20.2 21 20.5 20.9 20.7 20.7C21.1 20.3 21.1 19.7 20.7 19.3Z" fill="white"/>
</mask>
<g mask="url(#mask0_816_5338)">
<path d="M24 0H0V24H24V0Z" fill="#115EED"/>
</g>
</svg>
