<svg width="116" height="114" viewBox="0 0 116 114" fill="none" xmlns="http://www.w3.org/2000/svg">
<path d="M65.9651 16.4481C65.2389 11.6346 66.5461 6.8695 69.5478 3.04773C68.8942 2.80585 68.2164 2.56396 67.5628 2.34627C67.5628 6.99044 66.4493 11.4895 64.1738 15.5531C64.8274 15.795 65.5052 16.0369 66.1588 16.2546C66.304 12.2877 67.2481 8.51431 68.9426 4.91024C69.5478 3.65244 67.4902 2.9026 66.885 4.1604C65.0937 7.9096 64.1254 11.9249 63.9802 16.0611C63.9318 17.0528 65.4084 17.7785 65.9651 16.7626C68.4343 12.3603 69.7414 7.52259 69.7414 2.46721C69.7414 1.37873 68.4343 0.870772 67.7565 1.76574C64.3917 6.04709 63.0119 11.4411 63.8107 16.8109C64.0286 18.2381 66.183 17.851 65.9651 16.4481Z" fill="#F9E634"/>
<path d="M78.8676 20.2457C80.3684 14.1502 83.951 8.94973 89.1071 5.36984C88.5261 4.95864 87.9452 4.57162 87.3884 4.16042C85.2824 9.627 82.0387 14.5131 77.8025 18.5767C78.3834 18.9879 78.9644 19.3749 79.5212 19.7861C80.8525 15.6741 83.1764 12.1184 86.3717 9.2158C87.4126 8.27245 86.0086 6.60345 84.9677 7.5468C81.4819 10.6913 78.916 14.5856 77.4636 19.0363C77.1489 20.0038 78.3834 21.0197 79.1823 20.2457C83.709 15.916 87.1706 10.7397 89.4218 4.91026C89.8333 3.82178 88.5261 3.12032 87.7031 3.70084C82.2807 7.47423 78.3834 13.1101 76.81 19.5201C76.4953 20.8504 78.5529 21.6003 78.8676 20.2457Z" fill="#FFC91B"/>
<path d="M53.4499 16.4723C52.0458 11.4411 51.8522 6.2648 52.8689 1.13686C52.1427 1.18523 51.4165 1.20942 50.7145 1.2578C51.6585 6.36155 51.949 11.5379 51.5375 16.7142C51.4407 18.1171 53.6193 18.2864 53.7161 16.8835C54.1277 11.5137 53.8372 6.14386 52.8447 0.870784C52.6026 -0.435391 50.9081 -0.169318 50.6902 0.991726C49.6493 6.28899 49.8672 11.683 51.3196 16.8835C51.6827 18.2139 53.8372 17.8269 53.4499 16.4723Z" fill="#FFC91B"/>
<path d="M41.7085 18.7218C39.7719 16.7626 38.5132 14.3921 38.0048 11.683C37.3754 11.9733 36.7219 12.2877 36.0925 12.578C38.2227 14.5614 39.6267 17.0528 40.135 19.9313C40.3771 21.31 42.5315 20.923 42.2895 19.5443C41.7327 16.3272 40.1835 13.4004 37.787 11.1992C37.0365 10.4978 35.6567 10.9332 35.8746 12.0942C36.4556 15.142 37.8838 17.9236 40.0624 20.149C41.0065 21.1165 42.701 19.7378 41.7085 18.7218Z" fill="#F9E634"/>
<path d="M90.0989 29.5582C92.7859 25.4946 96.9011 22.7613 101.718 21.9147C101.355 21.3584 100.992 20.7778 100.629 20.2215C97.5305 23.6804 93.5847 26.196 89.2033 27.6957C89.5906 28.3004 89.9779 28.9051 90.3652 29.5099C93.1248 26.6556 96.3443 24.4303 100.024 22.9064C101.331 22.3743 100.387 20.3908 99.1039 20.923C95.2792 22.5194 91.866 24.8415 88.9854 27.8167C88.114 28.7358 88.9612 30.042 90.1473 29.6308C94.9403 28.0102 99.0797 25.1801 102.444 21.4309C103.122 20.6811 102.202 19.5684 101.355 19.7377C96.0054 20.6811 91.3335 23.7288 88.356 28.2762C87.533 29.4615 89.3243 30.7193 90.0989 29.5582Z" fill="#F9E634"/>
<path d="M96.0047 41.9185C100.483 39.2094 105.397 37.613 110.626 37.226C110.408 36.5487 110.19 35.8472 109.972 35.17C105.3 37.4679 100.41 39.1127 95.3027 40.1286C93.923 40.3947 94.3103 42.5474 95.7143 42.2814C100.991 41.2171 106.075 39.4997 110.916 37.1534C112.102 36.5729 111.449 35.0007 110.263 35.0974C104.889 35.5086 99.7326 37.1776 95.1091 39.9593C93.8745 40.6607 94.7944 42.6442 96.0047 41.9185Z" fill="#FFC91B"/>
<path d="M98.4752 53.6257C101.041 52.5856 103.704 52.3679 106.415 52.9243C106.294 52.2228 106.149 51.5455 106.028 50.844C103.365 52.0777 100.557 52.3437 97.6764 51.739C96.2966 51.4488 96.1513 53.6257 97.5069 53.916C100.726 54.5933 103.97 54.2063 106.948 52.8275C108.037 52.3195 107.553 50.9408 106.56 50.7473C103.486 50.1184 100.412 50.4812 97.5311 51.6423C96.224 52.1744 97.168 54.1579 98.4752 53.6257Z" fill="#F9E634"/>
<path d="M17.6955 16.1095C23.5536 17.972 28.5403 21.818 31.7114 27.091C32.1713 26.5831 32.6071 26.0993 33.067 25.5914C27.7415 23.1241 23.0937 19.5443 19.3416 15.0452C18.9301 15.6257 18.5428 16.2063 18.1313 16.7626C22.1496 18.359 25.5386 20.923 28.2014 24.3336C29.0728 25.4462 30.7431 24.0433 29.8717 22.9306C26.9668 19.2298 23.2147 16.4481 18.8575 14.7066C17.8408 14.2954 16.9693 15.6257 17.6471 16.4239C21.6655 21.2133 26.6279 24.9866 32.3166 27.6232C33.1396 28.0102 34.1563 26.9217 33.6722 26.1235C30.2106 20.3425 24.8608 16.0611 18.4218 14.0293C17.0904 13.6423 16.34 15.6741 17.6955 16.1095Z" fill="#FFC91B"/>
<path d="M74.1703 92.8835C77.3414 96.5844 78.7696 101.325 78.2371 106.163C78.9391 106.042 79.6168 105.897 80.3189 105.776C77.8739 101.833 76.4215 97.4068 76.2037 92.7384C75.5017 92.8593 74.8239 93.0045 74.1219 93.1254C76.1068 96.5844 77.293 100.285 77.7529 104.228C77.8982 105.631 80.0526 105.22 79.9073 103.841C79.4474 99.7288 78.1644 95.7861 76.1068 92.2063C75.6227 91.3597 73.9766 91.3838 74.025 92.5933C74.2429 97.6245 75.6711 102.438 78.3339 106.719C78.8906 107.614 80.2704 107.493 80.4157 106.332C81.0209 100.938 79.3506 95.5926 75.8406 91.4806C74.9449 90.4163 73.2746 91.8192 74.1703 92.8835Z" fill="#F9E634"/>
<path d="M61.1223 94.7702C63.0346 100.624 62.6473 106.913 60.2024 112.549C60.9044 112.597 61.6064 112.67 62.3084 112.718C61.2191 106.961 61.3886 101.108 62.841 95.4233C62.139 95.3749 61.437 95.3023 60.735 95.254C61.7759 99.4386 61.7032 103.696 60.4929 107.856C60.1056 109.187 62.1632 109.936 62.5505 108.606C63.8577 104.107 64.0029 99.4386 62.8894 94.867C62.6473 93.8994 61.0739 93.5608 60.7834 94.6976C59.2341 100.745 58.9921 106.985 60.154 113.129C60.3719 114.242 61.8485 114.266 62.26 113.299C64.947 107.106 65.1649 100.261 63.0831 93.851C62.6473 92.5207 60.6866 93.464 61.1223 94.7702Z" fill="#FFC91B"/>
<path d="M84.2401 85.8205C88.5489 88.6022 92.1073 92.2546 94.6975 96.6811C95.23 96.2215 95.7868 95.7861 96.3193 95.3265C92.2284 92.1337 88.5973 88.4328 85.4504 84.2966C84.6032 83.184 82.9329 84.5869 83.7801 85.6996C87.0481 89.9809 90.8244 93.8027 95.0606 97.1165C95.8836 97.7696 97.2392 96.7053 96.6824 95.7619C93.8986 91.021 90.1466 87.0299 85.523 84.0547C84.3369 83.2807 83.0781 85.0707 84.2401 85.8205Z" fill="#FFC91B"/>
<path d="M92.4958 76.2661C95.1828 76.9434 97.4825 78.2495 99.3706 80.2813C99.6853 79.6766 99.9758 79.0961 100.29 78.4914C97.5309 77.9351 95.1586 76.5322 93.2704 74.452C92.3264 73.4119 90.6561 74.8148 91.6002 75.8549C93.8998 78.3947 96.7805 79.9911 100.121 80.6684C101.041 80.8619 101.646 79.5315 101.041 78.8784C98.9107 76.5805 96.2963 74.9841 93.222 74.2101C91.8906 73.8714 91.116 75.9274 92.4958 76.2661Z" fill="#F9E634"/>
<path d="M45.7027 92.5691C45.5816 97.4309 43.524 101.906 39.9172 105.171C40.5224 105.486 41.1033 105.776 41.7085 106.09C42.5315 101.495 44.4923 97.31 47.4456 93.7301C46.8162 93.3915 46.1626 93.0528 45.5332 92.7384C44.686 96.6085 43.1367 100.188 40.837 103.43C40.014 104.567 41.8053 105.824 42.6284 104.687C45.0491 101.301 46.7194 97.5519 47.5908 93.4882C47.8571 92.303 46.5015 91.4806 45.6785 92.4965C42.4831 96.415 40.4255 100.987 39.5541 105.969C39.3846 106.913 40.6918 107.493 41.3454 106.889C45.388 103.26 47.7603 98.2292 47.9297 92.7868C47.9055 91.3355 45.7269 91.142 45.7027 92.5691Z" fill="#F9E634"/>
<path d="M114.766 65.5022C108.666 67.0503 102.396 66.3246 96.8045 63.4704C96.7561 64.1718 96.6835 64.8733 96.6351 65.5748C102.469 64.8733 108.303 65.4538 113.87 67.268C113.919 66.5665 113.991 65.865 114.04 65.1636C109.779 65.9134 105.543 65.5506 101.476 64.0751C100.145 63.5913 99.4189 65.6473 100.726 66.1311C105.132 67.7275 109.804 68.1387 114.427 67.3163C115.468 67.1228 115.638 65.5506 114.597 65.212C108.642 63.2527 102.445 62.6722 96.2235 63.422C95.0132 63.5671 95.2068 65.091 96.0541 65.5264C101.936 68.55 108.739 69.2998 115.153 67.655C116.509 67.2922 116.122 65.1394 114.766 65.5022Z" fill="#FFC91B"/>
<path d="M18.7114 67.3889C14.3057 70.1948 9.3917 71.8638 4.18719 72.3717C4.40505 73.049 4.62291 73.7505 4.84078 74.4277C9.46432 72.0573 14.3299 70.2915 19.4134 69.1789C20.7932 68.8886 20.3817 66.7359 19.0261 67.0261C13.7732 68.1872 8.7139 70.0013 3.92091 72.4685C2.78318 73.049 3.36415 74.6454 4.5745 74.5245C9.94846 74.0165 15.0803 72.2508 19.6313 69.3724C20.8174 68.6225 19.8975 66.6391 18.7114 67.3889Z" fill="#FFC91B"/>
<path d="M17.7922 55.077C15.2504 56.1655 12.5877 56.4316 9.87647 55.9478C9.99751 56.6493 10.1427 57.3265 10.2638 58.028C12.9023 56.746 15.7104 56.4074 18.591 56.9637C19.9708 57.2298 20.116 55.0528 18.7604 54.7867C15.5409 54.1578 12.2972 54.6174 9.34392 56.0445C8.30302 56.5525 8.69033 57.9312 9.73123 58.1248C12.8055 58.6811 15.8798 58.2941 18.7362 57.0605C20.0192 56.4799 19.0751 54.5207 17.7922 55.077Z" fill="#F9E634"/>
<path d="M23.3364 32.3399C20.6494 31.7352 18.3014 30.4774 16.389 28.4698C16.0743 29.0745 15.7838 29.655 15.4691 30.2597C18.2287 30.7677 20.6494 32.098 22.586 34.1299C23.5543 35.1458 25.2246 33.7428 24.2563 32.7269C21.9082 30.2355 19.0034 28.6875 15.6386 28.0828C14.7187 27.9134 14.0893 29.2196 14.7187 29.8727C16.8974 32.1222 19.5359 33.6945 22.6102 34.3959C23.9416 34.7104 24.692 32.6544 23.3364 32.3399Z" fill="#F9E634"/>
<path d="M1.23473 43.5392C7.28648 41.8701 13.5803 42.4749 19.2205 45.2082C19.269 44.5067 19.3416 43.8052 19.39 43.1038C13.5803 43.9262 7.74642 43.4666 2.13039 41.7492C2.08198 42.4507 2.00936 43.1521 1.96094 43.8536C6.19717 43.0312 10.4334 43.2973 14.5244 44.7002C15.8558 45.1598 16.6062 43.1038 15.2748 42.6442C10.8207 41.1203 6.17296 40.8059 1.57363 41.7008C0.556935 41.8943 0.339072 43.4666 1.40418 43.8052C7.38331 45.6435 13.6045 46.1273 19.8015 45.2565C20.9877 45.0872 20.8666 43.5875 19.971 43.1521C14.016 40.2495 7.21386 39.6206 0.847419 41.3864C-0.508173 41.7734 -0.120861 43.9262 1.23473 43.5392Z" fill="#FFC91B"/>
<path d="M24.1587 78.443C22.5369 80.6925 20.3824 82.289 17.7923 83.2323C18.2522 83.7645 18.688 84.3208 19.1479 84.8529C20.7456 82.4099 22.9968 80.6684 25.7564 79.6766C27.0878 79.1929 26.1437 77.2336 24.8365 77.6932C21.7622 78.8059 19.1721 80.8377 17.3808 83.571C16.7514 84.5143 17.7439 85.5544 18.7364 85.1916C21.6654 84.1031 24.1103 82.1922 25.9501 79.6766C26.7731 78.564 24.9818 77.3062 24.1587 78.443Z" fill="#F9E634"/>
<path d="M32.8727 86.5462C30.5488 91.0936 27.2082 94.9637 23.093 97.9873C23.6256 98.471 24.1581 98.9548 24.6907 99.4628C27.4503 95.0605 30.7182 91.0694 34.5187 87.5137C35.5354 86.5462 34.1556 84.8772 33.1147 85.8447C29.1932 89.5213 25.7558 93.6576 22.8994 98.2291C22.2458 99.2934 23.4803 100.43 24.497 99.7046C28.9511 96.4392 32.4369 92.2304 34.9303 87.3202C35.5596 86.0382 33.502 85.2884 32.8727 86.5462Z" fill="#FFC91B"/>
<path d="M72.3308 23.1483C54.4902 15.8192 24.3041 24.1642 23.3358 56.746C22.3917 88.2877 64.8992 99.1241 82.2556 81.007C97.1914 65.4055 100.435 34.662 72.3308 23.1483Z" fill="#FCCC00"/>
<path d="M40.2798 51.4971C38.8032 53.0936 39.3842 55.8269 41.3207 56.7944C43.4994 57.8829 45.799 55.972 45.9927 53.7467C46.1863 51.3036 43.5478 49.5137 41.3207 50.5296C39.2147 51.473 39.1905 54.69 41.2481 55.7301C43.7172 56.9637 46.1621 53.3355 44.1287 51.5213C43.6688 51.1101 42.7005 51.0618 42.41 51.739C41.9501 52.7791 42.0711 53.8434 42.8942 54.6416C43.3541 55.1012 43.9593 55.0045 44.4434 54.6416C45.1938 54.0611 45.4843 52.9968 45.1212 52.126C44.7097 51.1101 43.3541 50.7957 42.41 51.2553C40.5219 52.1502 41.7807 55.1738 43.693 54.9319C44.274 54.8593 44.7823 54.4965 44.7823 53.8434C44.7823 53.3113 44.274 52.6824 43.693 52.7549C43.4994 52.7549 43.4509 52.7791 43.5962 52.8033C43.693 52.8517 43.693 52.8275 43.6204 52.7549C43.3783 53.021 43.1605 53.142 43.4994 53.3838C43.3299 53.1661 43.1605 52.9484 42.991 52.7308C43.0878 52.9968 43.0878 52.9485 42.87 53.1178C43.3783 53.1178 43.9109 53.1178 44.4192 53.1178C44.3708 53.0694 44.2256 52.9484 44.274 52.8517C43.693 52.9243 43.1362 52.9968 42.5553 53.0694C42.6763 53.1661 42.7247 53.0694 42.6521 53.3355C42.6279 53.4564 42.5311 53.6983 42.41 53.7467C42.1438 53.8676 41.9743 53.6499 41.9017 53.3838C41.5628 52.2712 43.1362 52.2228 43.6446 52.9243C44.1287 53.6257 43.4509 55.0287 42.5311 54.9319C41.7565 54.8351 41.2723 53.6015 41.8049 53.021C42.7731 52.0051 41.2481 50.457 40.2798 51.4971Z" fill="#23272F"/>
<path d="M75.1391 50.8441C73.5173 48.8122 70.5156 50.6022 70.5156 52.8759C70.5156 55.4157 73.3236 56.6735 75.2844 55.1012C77.3178 53.4806 76.6642 50.1668 74.074 49.5621C71.7744 49.0057 69.9589 51.739 71.2418 53.6983C72.8395 56.1655 76.8336 53.408 75.2118 51.0618C74.7276 50.3361 73.832 50.3845 73.3236 51.0618C72.5732 52.1019 72.3796 53.4564 72.7669 54.6658C73.2026 55.9962 75.3086 55.4157 74.8729 54.0853C74.6308 53.3596 74.7518 52.7791 75.2118 52.1502C74.5824 52.1502 73.953 52.1502 73.3236 52.1502C73.4689 52.3437 73.4205 52.1744 73.3478 52.2712C73.2994 52.3437 73.1784 52.4889 73.0574 52.4889C73.0331 52.4889 73.0816 52.5372 73.0332 52.4405C72.9847 52.3679 72.9847 52.247 73.0089 52.1502C73.1058 51.1585 74.3645 51.8842 74.3645 52.5856C74.3645 53.3113 73.2026 54.1095 72.7911 53.2871C72.5248 52.7307 73.0574 51.7148 73.5899 52.3921C73.953 52.8517 74.7518 52.7791 75.1391 52.3921C75.5991 51.9325 75.5265 51.3036 75.1391 50.8441Z" fill="#23272F"/>
<path d="M52.2633 64.3654C52.5296 67.7276 55.386 70.6786 58.8718 70.5334C62.3576 70.4125 64.972 67.1712 64.9236 63.8091C64.9236 63.1076 63.8101 63.1076 63.8343 63.8091C63.8827 66.5907 61.7767 69.2756 58.8718 69.4449C55.9912 69.5901 53.5705 67.1229 53.3526 64.3654C53.3042 63.6639 52.2149 63.6639 52.2633 64.3654Z" fill="#23272F"/>
<path d="M35.3916 63.5914C34.2054 65.5022 35.0527 68.163 37.1345 69.0096C39.3373 69.9287 42.0969 68.6225 42.8473 66.373C43.6704 63.9058 41.758 61.6563 39.3131 61.4144C36.844 61.1483 34.3991 63.0834 34.6896 65.6957C34.9559 68.0178 37.4734 69.3966 39.6278 68.5984C41.7822 67.8001 43.1862 64.6798 40.8139 63.2527C39.2889 62.3336 35.3916 62.8657 36.1662 65.4055C36.7714 67.3889 40.1846 67.2438 40.8382 65.4055C41.8064 62.648 36.8924 62.3336 36.9166 65.2362C36.9408 66.4698 38.0543 67.3164 39.2647 67.1471C40.5719 66.9535 41.2255 65.7199 41.1771 64.4863C41.1528 63.6639 40.1361 63.2043 39.531 63.809C38.829 64.5347 38.4901 65.3571 38.4901 66.3488C38.4901 67.5824 40.4266 67.5824 40.4024 66.3488C40.4024 65.8409 40.5235 65.5264 40.8866 65.1636C40.3298 64.9459 39.7973 64.704 39.2405 64.4863C39.3615 64.9459 39.1921 65.091 38.6595 64.8975C38.248 65.0185 38.127 64.9943 38.2964 64.825C38.4175 64.4863 39.3615 64.6798 39.5794 64.8008C40.9108 65.5748 39.2647 66.9052 38.3448 66.9052C35.8273 66.9294 36.263 63.4462 38.5869 63.3011C39.5794 63.2285 40.8382 63.7365 41.0802 64.8008C41.2981 65.7683 40.5235 66.76 39.6762 67.1471C37.9817 67.8969 35.8757 66.3488 36.9892 64.5347C37.6912 63.5188 36.021 62.5512 35.3916 63.5914Z" fill="#FF8A6F"/>
<path d="M80.6332 60.8339C77.5347 60.0598 74.7751 63.5913 76.9538 66.2279C79.1324 68.8886 83.1992 66.8326 83.877 63.93C84.2159 62.5029 83.6349 61.0032 82.2793 60.3743C81.1174 59.8421 79.084 59.7454 77.922 60.3743C75.0898 61.9223 76.1307 66.5907 78.9872 67.4373C81.8194 68.2597 84.6516 65.2603 82.9571 62.5754C81.19 59.7938 77.0748 61.5837 77.0022 64.5589C76.9053 68.042 82.2551 66.6633 82.1583 63.7365C82.1099 62.4061 80.7785 61.4386 79.4955 61.7046C78.1641 61.9707 77.4863 63.422 77.922 64.6556C78.4062 66.0344 80.2459 66.4698 81.2142 65.3571C82.0615 64.4137 82.5456 62.2126 80.7785 61.9707C79.3745 61.7772 78.0431 63.6881 78.6725 64.9701C78.9629 65.5748 79.7376 65.7925 80.3185 65.5506C81.0932 65.2361 81.2868 64.4621 81.3595 63.6881C81.4321 62.8415 80.1491 62.527 79.7618 63.2527C79.2776 64.1719 79.2776 65.0668 79.7618 65.986C80.2943 66.9535 81.771 66.0827 81.2384 65.1152C81.0206 64.7766 81.0206 64.4379 81.2384 64.0993C80.7059 63.9542 80.1733 63.809 79.6407 63.6639C79.6892 63.7365 79.7376 63.809 79.7618 63.9058C79.9312 64.0267 80.1007 64.1719 80.2701 64.2928C80.1249 64.1235 80.609 63.7365 80.2217 63.6155C80.2217 63.6155 79.9312 64.2444 79.8102 64.2444C79.4955 64.2686 79.3261 63.7123 79.5197 63.4946C80.0523 62.9382 80.4638 63.7123 80.2943 64.1477C80.0765 64.6314 78.9629 65.2603 78.6725 64.704C78.3578 64.0993 79.3018 63.1318 79.7618 62.9624C81.19 62.4545 82.2067 64.0509 81.3837 65.2361C80.5122 66.4698 78.6483 65.7925 78.1399 64.6072C77.8736 63.9783 77.8736 63.3011 78.1157 62.6722C78.4546 61.8256 79.084 61.7046 79.907 61.6805C80.5122 61.6563 81.3595 61.6321 81.8436 62.0917C82.4488 62.6722 82.2551 63.5913 81.8678 64.2202C81.1658 65.3571 79.4955 66.4456 78.3336 65.2603C77.0264 63.93 78.5514 62.0675 80.1491 62.4545C81.2384 62.7447 81.6984 61.0999 80.6332 60.8339Z" fill="#FF8A6F"/>
<path d="M43.9367 39.5239C42.8716 39.7416 42.0244 40.4189 41.5402 41.3864C41.3708 41.725 41.5644 42.233 42.0002 42.2088C43.2831 42.1362 44.5419 41.7734 45.5828 41.0478C46.2606 40.5882 47.2289 39.6206 46.5511 38.7499C45.9217 37.9758 44.5661 38.4354 43.8157 38.774C42.799 39.2336 42.0002 40.056 41.516 41.0478C41.3466 41.3864 41.5402 41.8944 41.976 41.8702C43.501 41.7976 44.8566 41.1929 45.9217 40.0802C46.2848 39.7174 45.9943 39.2094 45.5344 39.1369C44.6145 39.0401 43.7915 39.3546 43.1379 39.9835C42.6295 40.4672 43.4042 41.2413 43.9125 40.7575C44.3724 40.2979 44.905 40.1528 45.5344 40.2254C45.4133 39.9109 45.2681 39.5965 45.1471 39.282C44.2998 40.177 43.2105 40.6849 41.976 40.7333C42.1212 40.9994 42.2906 41.2896 42.4359 41.5557C42.7022 41.0478 43.0169 40.5882 43.4768 40.2012C43.8641 39.8867 44.7356 39.3062 45.2681 39.4271C45.9943 39.5723 44.4935 40.4189 44.203 40.564C43.501 40.9026 42.7506 41.0719 41.976 41.0961C42.1212 41.3622 42.2906 41.6525 42.4359 41.9185C42.799 41.1929 43.38 40.7333 44.1788 40.564C44.905 40.4189 44.6145 39.3788 43.9367 39.5239Z" fill="#F9E634"/>
<path d="M70.7571 39.1852C70.0551 38.9675 69.3773 38.895 68.6511 38.9675C68.4332 38.9917 68.1669 39.1127 68.1185 39.3787C67.7312 41.2413 70.2972 41.9911 71.677 42.2572C72.3064 42.3781 73.202 42.5474 73.4683 41.7492C73.7104 41.0236 73.1294 40.3705 72.6211 39.9593C71.919 39.3787 71.1202 38.9675 70.2488 38.7257C69.5952 38.5563 68.3848 38.2419 67.9975 39.0401C67.1987 40.6365 70.7329 41.4348 71.6286 41.6767C72.3064 41.8702 72.5968 40.8059 71.919 40.6124C71.0234 40.3705 70.2245 39.9835 69.3531 39.6932C69.0626 39.5964 68.9416 39.5964 69.2321 39.6448C69.4741 39.669 69.7162 39.7174 69.9583 39.7899C70.394 39.9109 70.8055 40.0802 71.1928 40.2979C71.5317 40.4914 72.0401 40.7575 72.2579 41.0961C72.4274 41.338 72.4032 41.1929 72.2579 41.2655C72.1127 41.338 71.7012 41.1687 71.5559 41.1203C71.0234 40.9994 68.99 40.5156 69.1594 39.6932C68.99 39.8383 68.7963 39.9593 68.6269 40.1044C69.2563 40.056 69.8372 40.1044 70.4424 40.2737C71.1444 40.443 71.4349 39.3787 70.7571 39.1852Z" fill="#F9E634"/>
<path d="M41.927 53.408C41.5397 53.6257 41.4913 54.2062 41.8301 54.4723C42.1933 54.7868 42.7258 54.5207 42.9195 54.1579C43.1373 53.795 43.0889 53.1661 42.5806 53.1178C42.1448 53.0694 41.7333 53.5048 41.8544 53.9644C41.927 54.2788 42.4111 54.1337 42.3385 53.8434C42.3143 53.7708 42.3627 53.7467 42.4111 53.6983C42.4595 53.6499 42.5079 53.6741 42.5806 53.6499C42.6048 53.6499 42.5564 53.6015 42.5806 53.6499C42.5806 53.6741 42.6048 53.6983 42.6048 53.7467C42.6048 53.8192 42.5806 53.916 42.5321 53.9644C42.4837 54.0369 42.3143 54.2062 42.2175 54.1337C42.1206 54.0853 42.169 53.916 42.2417 53.8676C42.4595 53.6741 42.1933 53.2629 41.927 53.408Z" fill="white"/>
<path d="M72.7416 52.6582C72.7658 52.9001 72.7658 53.1419 72.7901 53.3838C72.7901 53.5048 72.9111 53.6499 73.0321 53.6257C73.3226 53.5773 73.5889 53.4322 73.7341 53.1419C73.8067 52.9968 73.8309 52.8517 73.7341 52.7065C73.6615 52.6098 73.5647 52.5372 73.4436 52.4889C72.9837 52.3437 72.4754 52.7307 72.548 53.2145C72.5964 53.529 73.0805 53.408 73.0321 53.0936V53.0694C73.0805 53.021 73.1047 53.021 73.1532 52.9968C73.25 52.9726 73.2984 52.9726 73.3226 53.0452C73.3226 52.9726 73.2984 52.9242 73.2984 52.8517C73.2742 52.9968 73.1774 53.1178 73.0321 53.1419C73.1047 53.2145 73.2016 53.3113 73.2742 53.3838C73.25 53.1419 73.25 52.9001 73.2258 52.6582C73.2258 52.3437 72.7174 52.3437 72.7416 52.6582Z" fill="white"/>
</svg>
