<svg width="24" height="24" viewBox="0 0 24 24" fill="none" xmlns="http://www.w3.org/2000/svg">
<path fill-rule="evenodd" clip-rule="evenodd" d="M20.9925 6.9629C20.9905 6.8909 20.9695 6.8229 20.9505 6.7539C20.9355 6.6959 20.9285 6.6369 20.9035 6.5839C20.8805 6.5319 20.8415 6.4899 20.8075 6.4419C20.7655 6.3809 20.7275 6.3199 20.6735 6.2699C20.6645 6.2609 20.6605 6.2489 20.6505 6.2409C20.6145 6.2099 20.5705 6.1989 20.5315 6.1739C20.4715 6.1349 20.4125 6.0949 20.3445 6.0689C20.2775 6.0449 20.2115 6.0389 20.1425 6.0289C20.0945 6.0219 20.0515 5.9999 20.0005 5.9999H15.0005C14.4475 5.9999 14.0005 6.4479 14.0005 6.9999C14.0005 7.5519 14.4475 7.9999 15.0005 7.9999H17.8265L13.7905 12.7079L9.5145 10.1429C9.0915 9.8869 8.5475 9.9809 8.2315 10.3599L3.2315 16.3599C2.8785 16.7839 2.9355 17.4149 3.3595 17.7679C3.5475 17.9239 3.7735 17.9999 3.9995 17.9999C4.2865 17.9999 4.5705 17.8779 4.7685 17.6399L9.2205 12.2979L13.4855 14.8579C13.9045 15.1089 14.4425 15.0209 14.7595 14.6509L19.0005 9.7029V11.9999C19.0005 12.5519 19.4475 12.9999 20.0005 12.9999C20.5535 12.9999 21.0005 12.5519 21.0005 11.9999V6.9999C21.0005 6.9869 20.9935 6.9759 20.9925 6.9629Z" fill="#115EED"/>
<mask id="mask0_1942_10896" style="mask-type:alpha" maskUnits="userSpaceOnUse" x="3" y="6" width="18" height="12">
<path fill-rule="evenodd" clip-rule="evenodd" d="M20.9925 6.9629C20.9905 6.8909 20.9695 6.8229 20.9505 6.7539C20.9355 6.6959 20.9285 6.6369 20.9035 6.5839C20.8805 6.5319 20.8415 6.4899 20.8075 6.4419C20.7655 6.3809 20.7275 6.3199 20.6735 6.2699C20.6645 6.2609 20.6605 6.2489 20.6505 6.2409C20.6145 6.2099 20.5705 6.1989 20.5315 6.1739C20.4715 6.1349 20.4125 6.0949 20.3445 6.0689C20.2775 6.0449 20.2115 6.0389 20.1425 6.0289C20.0945 6.0219 20.0515 5.9999 20.0005 5.9999H15.0005C14.4475 5.9999 14.0005 6.4479 14.0005 6.9999C14.0005 7.5519 14.4475 7.9999 15.0005 7.9999H17.8265L13.7905 12.7079L9.5145 10.1429C9.0915 9.8869 8.5475 9.9809 8.2315 10.3599L3.2315 16.3599C2.8785 16.7839 2.9355 17.4149 3.3595 17.7679C3.5475 17.9239 3.7735 17.9999 3.9995 17.9999C4.2865 17.9999 4.5705 17.8779 4.7685 17.6399L9.2205 12.2979L13.4855 14.8579C13.9045 15.1089 14.4425 15.0209 14.7595 14.6509L19.0005 9.7029V11.9999C19.0005 12.5519 19.4475 12.9999 20.0005 12.9999C20.5535 12.9999 21.0005 12.5519 21.0005 11.9999V6.9999C21.0005 6.9869 20.9935 6.9759 20.9925 6.9629Z" fill="white"/>
</mask>
<g mask="url(#mask0_1942_10896)">
<rect width="24" height="24" fill="#115EED"/>
</g>
</svg>
