<svg width="466" height="464" viewBox="0 0 466 464" fill="none" xmlns="http://www.w3.org/2000/svg">
<path d="M347.47 436.14C297.53 464.295 238.952 473.02 182.973 460.641C126.995 448.261 77.559 415.649 44.1482 369.06C10.7374 322.471 -4.29507 265.186 1.93446 208.195C8.16399 151.204 35.2169 98.5193 77.9034 60.2483C120.59 21.9773 175.904 0.814892 233.235 0.820707C290.566 0.826522 345.876 22.0002 388.554 60.2798C431.233 98.5594 458.275 151.249 464.493 208.242C470.711 265.234 455.667 322.516 422.247 369.098L344.3 313.176C363.94 285.801 372.781 252.139 369.127 218.647C365.473 185.154 349.581 154.19 324.5 131.695C299.42 109.2 266.916 96.7566 233.225 96.7531C199.534 96.7497 167.028 109.186 141.943 131.676C116.858 154.167 100.96 185.127 97.2989 218.619C93.638 252.11 102.472 285.774 122.106 313.153C141.741 340.531 170.792 359.696 203.688 366.971C236.585 374.247 271.009 369.119 300.357 352.573L347.47 436.14Z" fill="white"/>
</svg>
