<svg width="417" height="218" viewBox="0 0 417 218" fill="none" xmlns="http://www.w3.org/2000/svg">
<path opacity="0.5" d="M55.12 84.9737C52.1652 108.94 12.5602 141.194 28.3007 171.682C36.7389 188.027 37.5955 213.918 81.4346 203.738" stroke="white" stroke-dasharray="5 5"/>
<path opacity="0.5" d="M74.3709 45.5949C85.7585 36.5192 115.357 23.0962 130.44 23.0962C142.941 23.0963 182.951 36.2707 197.445 27.0883" stroke="white" stroke-dasharray="5 5"/>
<ellipse cx="215.002" cy="43" rx="24.0019" ry="24" fill="#DFE8FA"/>
<path fill-rule="evenodd" clip-rule="evenodd" d="M216.001 36C216.001 36.553 215.553 37 215.001 37C214.449 37 214.001 36.553 214.001 36V34C214.001 33.447 214.449 33 215.001 33C215.553 33 216.001 33.447 216.001 34V36ZM216.001 46.4598C216.001 46.1028 216.192 45.7718 216.502 45.5928C217.427 45.0618 218.001 44.0678 218.001 42.9998C218.001 41.3458 216.655 39.9998 215.001 39.9998C213.347 39.9998 212.001 41.3458 212.001 42.9998C212.001 44.0678 212.575 45.0618 213.5 45.5928C213.81 45.7718 214.001 46.1028 214.001 46.4598V50.9998H216.001V46.4598ZM210.001 42.9998C210.001 40.2428 212.244 37.9998 215.001 37.9998C217.758 37.9998 220.001 40.2428 220.001 42.9998C220.001 44.5788 219.247 46.0618 218.001 46.9958V50.9998C218.001 52.1028 217.104 52.9998 216.001 52.9998H214.001C212.898 52.9998 212.001 52.1028 212.001 50.9998V46.9958C210.754 46.0618 210.001 44.5788 210.001 42.9998ZM224.002 42H222.002C221.448 42 221.001 42.447 221.001 43C221.001 43.553 221.448 44 222.002 44H224.002C224.555 44 225.002 43.553 225.002 43C225.002 42.447 224.555 42 224.002 42ZM206 42H208C208.552 42 209 42.447 209 43C209 43.553 208.552 44 208 44H206C205.448 44 205 43.553 205 43C205 42.447 205.448 42 206 42ZM210.66 37.418L209.221 36.028C208.824 35.645 208.192 35.657 207.807 36.054C207.423 36.45 207.434 37.084 207.831 37.468L209.27 38.857C209.465 39.045 209.715 39.138 209.965 39.138C210.227 39.138 210.488 39.035 210.684 38.832C211.068 38.436 211.057 37.802 210.66 37.418ZM220.781 36.0297C221.177 35.6467 221.813 35.6577 222.194 36.0537C222.578 36.4497 222.567 37.0837 222.17 37.4667L220.731 38.8567C220.538 39.0437 220.287 39.1377 220.037 39.1377C219.775 39.1377 219.513 39.0347 219.318 38.8317C218.934 38.4357 218.945 37.8017 219.342 37.4187L220.781 36.0297Z" fill="#231F20"/>
<mask id="mask0_4_94" style="mask-type:alpha" maskUnits="userSpaceOnUse" x="205" y="33" width="21" height="20">
<path fill-rule="evenodd" clip-rule="evenodd" d="M216.001 36C216.001 36.553 215.553 37 215.001 37C214.449 37 214.001 36.553 214.001 36V34C214.001 33.447 214.449 33 215.001 33C215.553 33 216.001 33.447 216.001 34V36ZM216.001 46.4598C216.001 46.1028 216.192 45.7718 216.502 45.5928C217.427 45.0618 218.001 44.0678 218.001 42.9998C218.001 41.3458 216.655 39.9998 215.001 39.9998C213.347 39.9998 212.001 41.3458 212.001 42.9998C212.001 44.0678 212.575 45.0618 213.5 45.5928C213.81 45.7718 214.001 46.1028 214.001 46.4598V50.9998H216.001V46.4598ZM210.001 42.9998C210.001 40.2428 212.244 37.9998 215.001 37.9998C217.758 37.9998 220.001 40.2428 220.001 42.9998C220.001 44.5788 219.247 46.0618 218.001 46.9958V50.9998C218.001 52.1028 217.104 52.9998 216.001 52.9998H214.001C212.898 52.9998 212.001 52.1028 212.001 50.9998V46.9958C210.754 46.0618 210.001 44.5788 210.001 42.9998ZM224.002 42H222.002C221.448 42 221.001 42.447 221.001 43C221.001 43.553 221.448 44 222.002 44H224.002C224.555 44 225.002 43.553 225.002 43C225.002 42.447 224.555 42 224.002 42ZM206 42H208C208.552 42 209 42.447 209 43C209 43.553 208.552 44 208 44H206C205.448 44 205 43.553 205 43C205 42.447 205.448 42 206 42ZM210.66 37.418L209.221 36.028C208.824 35.645 208.192 35.657 207.807 36.054C207.423 36.45 207.434 37.084 207.831 37.468L209.27 38.857C209.465 39.045 209.715 39.138 209.965 39.138C210.227 39.138 210.488 39.035 210.684 38.832C211.068 38.436 211.057 37.802 210.66 37.418ZM220.781 36.0297C221.177 35.6467 221.813 35.6577 222.194 36.0537C222.578 36.4497 222.567 37.0837 222.17 37.4667L220.731 38.8567C220.538 39.0437 220.287 39.1377 220.037 39.1377C219.775 39.1377 219.513 39.0347 219.318 38.8317C218.934 38.4357 218.945 37.8017 219.342 37.4187L220.781 36.0297Z" fill="white"/>
</mask>
<g mask="url(#mask0_4_94)">
<rect x="203" y="31" width="24.0019" height="24" fill="#4885FF"/>
</g>
<ellipse cx="66.9334" cy="65.0132" rx="24.0019" ry="23.9526" fill="#FAE9C9"/>
<path fill-rule="evenodd" clip-rule="evenodd" d="M68.9326 60.0231C68.9326 58.9223 68.0355 58.027 66.9324 58.027C65.8294 58.027 64.9323 58.9223 64.9323 60.0231C64.9323 61.1239 65.8294 62.0191 66.9324 62.0191C68.0355 62.0191 68.9326 61.1239 68.9326 60.0231ZM70.9328 60.0231C70.9328 62.2247 69.1386 64.0152 66.9324 64.0152C64.7263 64.0152 62.9321 62.2247 62.9321 60.0231C62.9321 57.8214 64.7263 56.031 66.9324 56.031C69.1386 56.031 70.9328 57.8214 70.9328 60.0231ZM59.9319 72.9974C59.9319 69.145 63.0731 66.0112 66.9324 66.0112C70.7918 66.0112 73.933 69.145 73.933 72.9974C73.933 73.5483 73.486 73.9954 72.9329 73.9954C72.3799 73.9954 71.9328 73.5483 71.9328 72.9974C71.9328 70.2458 69.6897 68.0073 66.9324 68.0073C64.1752 68.0073 61.932 70.2458 61.932 72.9974C61.932 73.5483 61.485 73.9954 60.932 73.9954C60.3789 73.9954 59.9319 73.5483 59.9319 72.9974Z" fill="#FFA700"/>
<mask id="mask1_4_94" style="mask-type:alpha" maskUnits="userSpaceOnUse" x="59" y="56" width="15" height="18">
<path fill-rule="evenodd" clip-rule="evenodd" d="M68.9326 60.0231C68.9326 58.9223 68.0355 58.027 66.9324 58.027C65.8294 58.027 64.9323 58.9223 64.9323 60.0231C64.9323 61.1239 65.8294 62.0191 66.9324 62.0191C68.0355 62.0191 68.9326 61.1239 68.9326 60.0231ZM70.9328 60.0231C70.9328 62.2247 69.1386 64.0152 66.9324 64.0152C64.7263 64.0152 62.9321 62.2247 62.9321 60.0231C62.9321 57.8214 64.7263 56.031 66.9324 56.031C69.1386 56.031 70.9328 57.8214 70.9328 60.0231ZM59.9319 72.9974C59.9319 69.145 63.0731 66.0112 66.9324 66.0112C70.7918 66.0112 73.933 69.145 73.933 72.9974C73.933 73.5483 73.486 73.9954 72.9329 73.9954C72.3799 73.9954 71.9328 73.5483 71.9328 72.9974C71.9328 70.2458 69.6897 68.0073 66.9324 68.0073C64.1752 68.0073 61.932 70.2458 61.932 72.9974C61.932 73.5483 61.485 73.9954 60.932 73.9954C60.3789 73.9954 59.9319 73.5483 59.9319 72.9974Z" fill="white"/>
</mask>
<g mask="url(#mask1_4_94)">
<rect x="54.9315" y="53.0369" width="24.0019" height="23.9526" fill="#FFA700"/>
</g>
<ellipse cx="361.958" cy="65.0132" rx="24.0019" ry="23.9526" fill="#D2F9CC"/>
<path fill-rule="evenodd" clip-rule="evenodd" d="M359.957 58.027C361.06 58.027 361.957 58.9223 361.957 60.0231C361.957 61.1239 361.06 62.0191 359.957 62.0191C358.854 62.0191 357.957 61.1239 357.957 60.0231C357.957 58.9223 358.854 58.027 359.957 58.027ZM359.957 64.0152C362.163 64.0152 363.957 62.2247 363.957 60.0231C363.957 57.8214 362.163 56.031 359.957 56.031C357.751 56.031 355.956 57.8214 355.956 60.0231C355.956 62.2247 357.751 64.0152 359.957 64.0152ZM359.957 66.0112C356.097 66.0112 352.956 69.145 352.956 72.9974C352.956 73.5483 353.403 73.9954 353.956 73.9954C354.509 73.9954 354.956 73.5483 354.956 72.9974C354.956 70.2458 357.199 68.0073 359.957 68.0073C362.714 68.0073 364.957 70.2458 364.957 72.9974C364.957 73.5483 365.404 73.9954 365.957 73.9954C366.51 73.9954 366.957 73.5483 366.957 72.9974C366.957 69.145 363.816 66.0112 359.957 66.0112ZM369.958 59.0251H370.958C371.508 59.0251 371.958 59.4742 371.958 60.0231C371.958 60.572 371.508 61.0211 370.958 61.0211H369.958V62.0191C369.958 62.568 369.507 63.0171 368.957 63.0171C368.407 63.0171 367.957 62.568 367.957 62.0191V61.0211H366.957C366.407 61.0211 365.957 60.572 365.957 60.0231C365.957 59.4742 366.407 59.0251 366.957 59.0251H367.957V58.027C367.957 57.4781 368.407 57.029 368.957 57.029C369.507 57.029 369.958 57.4781 369.958 58.027V59.0251Z" fill="#231F20"/>
<mask id="mask2_4_94" style="mask-type:alpha" maskUnits="userSpaceOnUse" x="352" y="56" width="20" height="18">
<path fill-rule="evenodd" clip-rule="evenodd" d="M359.957 58.027C361.06 58.027 361.957 58.9223 361.957 60.0231C361.957 61.1239 361.06 62.0191 359.957 62.0191C358.854 62.0191 357.957 61.1239 357.957 60.0231C357.957 58.9223 358.854 58.027 359.957 58.027ZM359.957 64.0152C362.163 64.0152 363.957 62.2247 363.957 60.0231C363.957 57.8214 362.163 56.031 359.957 56.031C357.751 56.031 355.956 57.8214 355.956 60.0231C355.956 62.2247 357.751 64.0152 359.957 64.0152ZM359.957 66.0112C356.097 66.0112 352.956 69.145 352.956 72.9974C352.956 73.5483 353.403 73.9954 353.956 73.9954C354.509 73.9954 354.956 73.5483 354.956 72.9974C354.956 70.2458 357.199 68.0073 359.957 68.0073C362.714 68.0073 364.957 70.2458 364.957 72.9974C364.957 73.5483 365.404 73.9954 365.957 73.9954C366.51 73.9954 366.957 73.5483 366.957 72.9974C366.957 69.145 363.816 66.0112 359.957 66.0112ZM369.958 59.0251H370.958C371.508 59.0251 371.958 59.4742 371.958 60.0231C371.958 60.572 371.508 61.0211 370.958 61.0211H369.958V62.0191C369.958 62.568 369.507 63.0171 368.957 63.0171C368.407 63.0171 367.957 62.568 367.957 62.0191V61.0211H366.957C366.407 61.0211 365.957 60.572 365.957 60.0231C365.957 59.4742 366.407 59.0251 366.957 59.0251H367.957V58.027C367.957 57.4781 368.407 57.029 368.957 57.029C369.507 57.029 369.958 57.4781 369.958 58.027V59.0251Z" fill="white"/>
</mask>
<g mask="url(#mask2_4_94)">
<rect x="349.956" y="53.0369" width="24.0019" height="23.9526" fill="#26DD0A"/>
</g>
<path opacity="0.5" d="M233.448 30.5815C252.706 37.1874 290.953 30.5814 328.359 19.3893C344.807 14.4681 363.092 36.7597 364.457 40.5617" stroke="white" stroke-dasharray="4 4"/>
<path opacity="0.5" d="M379.388 81.268C377.005 95.3117 375.283 126.833 387.462 140.566C399.641 154.3 390.466 190.759 384.356 207.272" stroke="white" stroke-dasharray="4 4"/>
</svg>
