<svg width="1200" height="336" viewBox="0 0 1200 336" fill="none" xmlns="http://www.w3.org/2000/svg">
<path opacity="0.5" d="M969.499 191C914.999 204.167 809.799 243.8 824.999 297" stroke="white" stroke-dasharray="4 4"/>
<path opacity="0.5" d="M234 186.5C297 216.333 279.276 377.684 373 323.5" stroke="white" stroke-dasharray="4 4"/>
<path opacity="0.5" d="M25.5 98C42.3333 133.667 15.5 212.5 64 241C90 256.278 155 251.5 207 199.5" stroke="white" stroke-dasharray="5 5"/>
<circle cx="24" cy="73" r="24" fill="#FAE9C9"/>
<path fill-rule="evenodd" clip-rule="evenodd" d="M26 68C26 66.897 25.103 66 24 66C22.897 66 22 66.897 22 68C22 69.103 22.897 70 24 70C25.103 70 26 69.103 26 68ZM28 68C28 70.206 26.206 72 24 72C21.794 72 20 70.206 20 68C20 65.794 21.794 64 24 64C26.206 64 28 65.794 28 68ZM17 81C17 77.14 20.141 74 24 74C27.859 74 31 77.14 31 81C31 81.552 30.553 82 30 82C29.447 82 29 81.552 29 81C29 78.243 26.757 76 24 76C21.243 76 19 78.243 19 81C19 81.552 18.553 82 18 82C17.447 82 17 81.552 17 81Z" fill="#FFA700"/>
<mask id="mask0_1_111" style="mask-type:alpha" maskUnits="userSpaceOnUse" x="17" y="64" width="14" height="18">
<path fill-rule="evenodd" clip-rule="evenodd" d="M26 68C26 66.897 25.103 66 24 66C22.897 66 22 66.897 22 68C22 69.103 22.897 70 24 70C25.103 70 26 69.103 26 68ZM28 68C28 70.206 26.206 72 24 72C21.794 72 20 70.206 20 68C20 65.794 21.794 64 24 64C26.206 64 28 65.794 28 68ZM17 81C17 77.14 20.141 74 24 74C27.859 74 31 77.14 31 81C31 81.552 30.553 82 30 82C29.447 82 29 81.552 29 81C29 78.243 26.757 76 24 76C21.243 76 19 78.243 19 81C19 81.552 18.553 82 18 82C17.447 82 17 81.552 17 81Z" fill="white"/>
</mask>
<g mask="url(#mask0_1_111)">
<rect x="12" y="61" width="24" height="24" fill="#FFA700"/>
</g>
<circle cx="1176" cy="113" r="24" fill="#D2F9CC"/>
<path fill-rule="evenodd" clip-rule="evenodd" d="M1174 106C1175.1 106 1176 106.897 1176 108C1176 109.103 1175.1 110 1174 110C1172.9 110 1172 109.103 1172 108C1172 106.897 1172.9 106 1174 106ZM1174 112C1176.21 112 1178 110.206 1178 108C1178 105.794 1176.21 104 1174 104C1171.79 104 1170 105.794 1170 108C1170 110.206 1171.79 112 1174 112ZM1174 114C1170.14 114 1167 117.14 1167 121C1167 121.552 1167.45 122 1168 122C1168.55 122 1169 121.552 1169 121C1169 118.243 1171.24 116 1174 116C1176.76 116 1179 118.243 1179 121C1179 121.552 1179.45 122 1180 122C1180.55 122 1181 121.552 1181 121C1181 117.14 1177.86 114 1174 114ZM1184 107H1185C1185.55 107 1186 107.45 1186 108C1186 108.55 1185.55 109 1185 109H1184V110C1184 110.55 1183.55 111 1183 111C1182.45 111 1182 110.55 1182 110V109H1181C1180.45 109 1180 108.55 1180 108C1180 107.45 1180.45 107 1181 107H1182V106C1182 105.45 1182.45 105 1183 105C1183.55 105 1184 105.45 1184 106V107Z" fill="#231F20"/>
<mask id="mask1_1_111" style="mask-type:alpha" maskUnits="userSpaceOnUse" x="1167" y="104" width="19" height="18">
<path fill-rule="evenodd" clip-rule="evenodd" d="M1174 106C1175.1 106 1176 106.897 1176 108C1176 109.103 1175.1 110 1174 110C1172.9 110 1172 109.103 1172 108C1172 106.897 1172.9 106 1174 106ZM1174 112C1176.21 112 1178 110.206 1178 108C1178 105.794 1176.21 104 1174 104C1171.79 104 1170 105.794 1170 108C1170 110.206 1171.79 112 1174 112ZM1174 114C1170.14 114 1167 117.14 1167 121C1167 121.552 1167.45 122 1168 122C1168.55 122 1169 121.552 1169 121C1169 118.243 1171.24 116 1174 116C1176.76 116 1179 118.243 1179 121C1179 121.552 1179.45 122 1180 122C1180.55 122 1181 121.552 1181 121C1181 117.14 1177.86 114 1174 114ZM1184 107H1185C1185.55 107 1186 107.45 1186 108C1186 108.55 1185.55 109 1185 109H1184V110C1184 110.55 1183.55 111 1183 111C1182.45 111 1182 110.55 1182 110V109H1181C1180.45 109 1180 108.55 1180 108C1180 107.45 1180.45 107 1181 107H1182V106C1182 105.45 1182.45 105 1183 105C1183.55 105 1184 105.45 1184 106V107Z" fill="white"/>
</mask>
<g mask="url(#mask1_1_111)">
<rect x="1164" y="101" width="24" height="24" fill="#26DD0A"/>
</g>
<circle cx="987" cy="174" r="24" fill="#FAE9C9"/>
<path fill-rule="evenodd" clip-rule="evenodd" d="M995 180C995 180.551 994.551 181 994 181H992V171H994C994.551 171 995 171.449 995 172V180ZM979 180V172C979 171.449 979.449 171 980 171H982V181H980C979.449 181 979 180.551 979 180V180ZM985 167.5C985 167.224 985.224 167 985.5 167H988.5C988.776 167 989 167.224 989 167.5V169H985V167.5ZM984 181H990V171H984V181ZM994 169H991V167.5C991 166.122 989.878 165 988.5 165H985.5C984.122 165 983 166.122 983 167.5V169H980C978.346 169 977 170.346 977 172V180C977 181.654 978.346 183 980 183H994C995.654 183 997 181.654 997 180V172C997 170.346 995.654 169 994 169V169Z" fill="#FFA700"/>
<mask id="mask2_1_111" style="mask-type:alpha" maskUnits="userSpaceOnUse" x="977" y="165" width="20" height="18">
<path fill-rule="evenodd" clip-rule="evenodd" d="M995 180C995 180.551 994.551 181 994 181H992V171H994C994.551 171 995 171.449 995 172V180ZM979 180V172C979 171.449 979.449 171 980 171H982V181H980C979.449 181 979 180.551 979 180V180ZM985 167.5C985 167.224 985.224 167 985.5 167H988.5C988.776 167 989 167.224 989 167.5V169H985V167.5ZM984 181H990V171H984V181ZM994 169H991V167.5C991 166.122 989.878 165 988.5 165H985.5C984.122 165 983 166.122 983 167.5V169H980C978.346 169 977 170.346 977 172V180C977 181.654 978.346 183 980 183H994C995.654 183 997 181.654 997 180V172C997 170.346 995.654 169 994 169V169Z" fill="white"/>
</mask>
<g mask="url(#mask2_1_111)">
<rect x="975" y="162" width="24" height="24" fill="#FFA700"/>
</g>
<circle cx="214" cy="174" r="24" fill="#D2F9CC"/>
<path fill-rule="evenodd" clip-rule="evenodd" d="M220 172C220 171.449 219.552 171 219 171C218.448 171 218 171.449 218 172C218 172.551 218.448 173 219 173C219.552 173 220 172.551 220 172ZM222 172C222 173.654 220.654 175 219 175C217.346 175 216 173.654 216 172C216 170.346 217.346 169 219 169C220.654 169 222 170.346 222 172ZM213 169C213 167.897 212.103 167 211 167C209.897 167 209 167.897 209 169C209 170.103 209.897 171 211 171C212.103 171 213 170.103 213 169ZM215 169C215 171.206 213.206 173 211 173C208.794 173 207 171.206 207 169C207 166.794 208.794 165 211 165C213.206 165 215 166.794 215 169ZM215.94 177.046C216.809 176.374 217.879 176 219 176C221.757 176 224 178.243 224 181C224 181.552 223.553 182 223 182C222.447 182 222 181.552 222 181C222 179.346 220.654 178 219 178C218.317 178 217.668 178.234 217.144 178.649C217.688 179.645 218 180.787 218 182C218 182.552 217.553 183 217 183C216.447 183 216 182.552 216 182C216 179.243 213.757 177 211 177C208.243 177 206 179.243 206 182C206 182.552 205.553 183 205 183C204.447 183 204 182.552 204 182C204 178.14 207.141 175 211 175C212.927 175 214.673 175.783 215.94 177.046Z" fill="#1EE100"/>
<mask id="mask3_1_111" style="mask-type:alpha" maskUnits="userSpaceOnUse" x="204" y="165" width="20" height="18">
<path fill-rule="evenodd" clip-rule="evenodd" d="M220 172C220 171.449 219.552 171 219 171C218.448 171 218 171.449 218 172C218 172.551 218.448 173 219 173C219.552 173 220 172.551 220 172ZM222 172C222 173.654 220.654 175 219 175C217.346 175 216 173.654 216 172C216 170.346 217.346 169 219 169C220.654 169 222 170.346 222 172ZM213 169C213 167.897 212.103 167 211 167C209.897 167 209 167.897 209 169C209 170.103 209.897 171 211 171C212.103 171 213 170.103 213 169ZM215 169C215 171.206 213.206 173 211 173C208.794 173 207 171.206 207 169C207 166.794 208.794 165 211 165C213.206 165 215 166.794 215 169ZM215.94 177.046C216.809 176.374 217.879 176 219 176C221.757 176 224 178.243 224 181C224 181.552 223.553 182 223 182C222.447 182 222 181.552 222 181C222 179.346 220.654 178 219 178C218.317 178 217.668 178.234 217.144 178.649C217.688 179.645 218 180.787 218 182C218 182.552 217.553 183 217 183C216.447 183 216 182.552 216 182C216 179.243 213.757 177 211 177C208.243 177 206 179.243 206 182C206 182.552 205.553 183 205 183C204.447 183 204 182.552 204 182C204 178.14 207.141 175 211 175C212.927 175 214.673 175.783 215.94 177.046Z" fill="white"/>
</mask>
<g mask="url(#mask3_1_111)">
<rect x="202" y="162" width="24" height="24" fill="#1EE100"/>
</g>
<circle cx="600" cy="24" r="24" fill="#DFE8FA"/>
<path fill-rule="evenodd" clip-rule="evenodd" d="M601 17C601 17.553 600.552 18 600 18C599.448 18 599 17.553 599 17V15C599 14.447 599.448 14 600 14C600.552 14 601 14.447 601 15V17ZM601 27.4598C601 27.1028 601.191 26.7718 601.501 26.5928C602.426 26.0618 603 25.0678 603 23.9998C603 22.3458 601.654 20.9998 600 20.9998C598.346 20.9998 597 22.3458 597 23.9998C597 25.0678 597.574 26.0618 598.499 26.5928C598.809 26.7718 599 27.1028 599 27.4598V31.9998H601V27.4598ZM595 23.9998C595 21.2428 597.243 18.9998 600 18.9998C602.757 18.9998 605 21.2428 605 23.9998C605 25.5788 604.246 27.0618 603 27.9958V31.9998C603 33.1028 602.103 33.9998 601 33.9998H599C597.897 33.9998 597 33.1028 597 31.9998V27.9958C595.753 27.0618 595 25.5788 595 23.9998ZM609 23H607C606.447 23 606 23.447 606 24C606 24.553 606.447 25 607 25H609C609.553 25 610 24.553 610 24C610 23.447 609.553 23 609 23ZM591 23H593C593.552 23 594 23.447 594 24C594 24.553 593.552 25 593 25H591C590.448 25 590 24.553 590 24C590 23.447 590.448 23 591 23ZM595.66 18.418L594.221 17.028C593.824 16.645 593.192 16.657 592.807 17.054C592.423 17.45 592.434 18.084 592.831 18.468L594.27 19.857C594.465 20.045 594.715 20.138 594.965 20.138C595.227 20.138 595.488 20.035 595.684 19.832C596.068 19.436 596.057 18.802 595.66 18.418ZM605.779 17.0297C606.175 16.6467 606.811 16.6577 607.192 17.0537C607.576 17.4497 607.565 18.0837 607.168 18.4667L605.729 19.8567C605.536 20.0437 605.285 20.1377 605.035 20.1377C604.773 20.1377 604.511 20.0347 604.316 19.8317C603.932 19.4357 603.943 18.8017 604.34 18.4187L605.779 17.0297Z" fill="#231F20"/>
<mask id="mask4_1_111" style="mask-type:alpha" maskUnits="userSpaceOnUse" x="590" y="14" width="20" height="20">
<path fill-rule="evenodd" clip-rule="evenodd" d="M601 17C601 17.553 600.552 18 600 18C599.448 18 599 17.553 599 17V15C599 14.447 599.448 14 600 14C600.552 14 601 14.447 601 15V17ZM601 27.4598C601 27.1028 601.191 26.7718 601.501 26.5928C602.426 26.0618 603 25.0678 603 23.9998C603 22.3458 601.654 20.9998 600 20.9998C598.346 20.9998 597 22.3458 597 23.9998C597 25.0678 597.574 26.0618 598.499 26.5928C598.809 26.7718 599 27.1028 599 27.4598V31.9998H601V27.4598ZM595 23.9998C595 21.2428 597.243 18.9998 600 18.9998C602.757 18.9998 605 21.2428 605 23.9998C605 25.5788 604.246 27.0618 603 27.9958V31.9998C603 33.1028 602.103 33.9998 601 33.9998H599C597.897 33.9998 597 33.1028 597 31.9998V27.9958C595.753 27.0618 595 25.5788 595 23.9998ZM609 23H607C606.447 23 606 23.447 606 24C606 24.553 606.447 25 607 25H609C609.553 25 610 24.553 610 24C610 23.447 609.553 23 609 23ZM591 23H593C593.552 23 594 23.447 594 24C594 24.553 593.552 25 593 25H591C590.448 25 590 24.553 590 24C590 23.447 590.448 23 591 23ZM595.66 18.418L594.221 17.028C593.824 16.645 593.192 16.657 592.807 17.054C592.423 17.45 592.434 18.084 592.831 18.468L594.27 19.857C594.465 20.045 594.715 20.138 594.965 20.138C595.227 20.138 595.488 20.035 595.684 19.832C596.068 19.436 596.057 18.802 595.66 18.418ZM605.779 17.0297C606.175 16.6467 606.811 16.6577 607.192 17.0537C607.576 17.4497 607.565 18.0837 607.168 18.4667L605.729 19.8567C605.536 20.0437 605.285 20.1377 605.035 20.1377C604.773 20.1377 604.511 20.0347 604.316 19.8317C603.932 19.4357 603.943 18.8017 604.34 18.4187L605.779 17.0297Z" fill="white"/>
</mask>
<g mask="url(#mask4_1_111)">
<rect x="588" y="12" width="24" height="24" fill="#4885FF"/>
</g>
<path opacity="0.5" d="M46.5 60.5C105.333 35 236.7 -5.4 291.5 37C346.3 79.4 503 49 574.5 28.5" stroke="white" stroke-dasharray="5 5"/>
<path opacity="0.5" d="M618 12C685.521 35.1667 830.474 64 931.5 37.5C987.91 16.5 1153.21 82.6667 1158 96" stroke="white" stroke-dasharray="4 4"/>
<path opacity="0.5" d="M1179 138C1158 140.167 1112.3 150.2 1097.5 173C1082.7 195.8 1027 197.167 1001 195" stroke="white" stroke-dasharray="4 4"/>
</svg>
